<svg width="37" height="37" viewBox="0 0 37 37" fill="none" xmlns="http://www.w3.org/2000/svg">
<g clip-path="url(#clip0_2226_126735)">
<path d="M28.4767 0.445803C26.4305 0.44421 24.4672 1.25683 23.0178 2.70528C21.5685 4.15373 20.7515 6.11965 20.7462 8.1715V16.7374C19.9501 16.7913 19.136 16.8252 18.2921 16.8252C17.4482 16.8252 16.6381 16.8592 15.838 16.9071V8.1715C15.8054 6.13744 14.9768 4.19773 13.5307 2.77084C12.0847 1.34394 10.1372 0.544235 8.10845 0.544235C6.07967 0.544235 4.13219 1.34394 2.68616 2.77084C1.24013 4.19773 0.411459 6.13744 0.378906 8.1715V28.6443C0.411459 30.6783 1.24013 32.6181 2.68616 34.0449C4.13219 35.4718 6.07967 36.2716 8.10845 36.2716C10.1372 36.2716 12.0847 35.4718 13.5307 34.0449C14.9768 32.6181 15.8054 30.6783 15.838 28.6443V20.0784C16.6341 20.0245 17.4482 19.9906 18.2921 19.9906C19.136 19.9906 19.9461 19.9566 20.7462 19.9087V28.6443C20.7788 30.6783 21.6074 32.6181 23.0535 34.0449C24.4995 35.4718 26.447 36.2716 28.4757 36.2716C30.5045 36.2716 32.452 35.4718 33.898 34.0449C35.3441 32.6181 36.1727 30.6783 36.2053 28.6443V8.1715C36.2 6.11999 35.3833 4.15437 33.9344 2.70598C32.4855 1.25759 30.5227 0.444739 28.4767 0.445803ZM8.10745 3.61112C9.31509 3.61059 10.4736 4.09044 11.3289 4.94539C12.1841 5.80034 12.6662 6.96057 12.6693 8.1715V17.2424C10.4079 17.5709 8.19946 18.197 6.10118 19.1044C5.19205 19.5045 4.33623 20.0167 3.55352 20.6292V8.1715C3.55668 6.96195 4.03767 5.80293 4.89119 4.94821C5.7447 4.09349 6.90119 3.6127 8.10745 3.61112ZM12.6693 28.6443C12.6693 29.8575 12.1887 31.021 11.3332 31.8788C10.4777 32.7367 9.31734 33.2186 8.10745 33.2186C6.89756 33.2186 5.73723 32.7367 4.88171 31.8788C4.02619 31.021 3.54556 29.8575 3.54556 28.6443V26.5906C3.54556 24.7765 4.97862 23.0581 7.38097 21.9883C9.07372 21.256 10.8498 20.7352 12.6693 20.4376V28.6443ZM28.4767 33.2047C27.2691 33.2052 26.1106 32.7253 25.2553 31.8704C24.4001 31.0154 23.918 29.8552 23.9149 28.6443V19.5734C26.1763 19.2448 28.3847 18.6188 30.483 17.7114C31.3921 17.3113 32.248 16.7991 33.0307 16.1866V28.6443C33.0275 29.8538 32.5465 31.0129 31.693 31.8676C30.8395 32.7223 29.683 33.2031 28.4767 33.2047ZM29.2032 14.8155C27.5105 15.5478 25.7344 16.0686 23.9149 16.3662V8.1715C23.9149 6.95831 24.3955 5.7948 25.251 4.93695C26.1065 4.07909 27.2669 3.59715 28.4767 3.59715C29.6866 3.59715 30.847 4.07909 31.7025 4.93695C32.558 5.7948 33.0386 6.95831 33.0386 8.1715V10.2252C33.0386 12.0314 31.6056 13.7497 29.2032 14.8155Z" fill="url(#paint0_linear_2226_126735)"/>
</g>
<defs>
<linearGradient id="paint0_linear_2226_126735" x1="2.64791" y1="33.6024" x2="33.8169" y2="2.43347" gradientUnits="userSpaceOnUse">
<stop stop-color="#00AEE9"/>
<stop offset="1" stop-color="#69FABD"/>
</linearGradient>
<clipPath id="clip0_2226_126735">
<rect width="35.8264" height="35.8264" fill="white" transform="translate(0.378906 0.445801)"/>
</clipPath>
</defs>
</svg>
