<svg width="354" height="61" viewBox="0 0 354 61" fill="none" xmlns="http://www.w3.org/2000/svg">
<g filter="url(#filter0_d_3014_274733)">
<path d="M4.91533 52V13.1168C4.91533 11.3166 5.34286 9.69647 6.19793 8.25636C7.09801 6.77123 8.26811 5.60113 9.70823 4.74606C11.1933 3.84599 12.836 3.39595 14.6361 3.39595H43.7311C45.5312 3.39595 47.1513 3.84599 48.5915 4.74606C50.0766 5.60113 51.2692 6.77123 52.1693 8.25636C53.0693 9.69647 53.5194 11.3166 53.5194 13.1168V52H43.6636V36.0012H14.6361V52H4.91533ZM14.6361 26.2804H43.6636V13.5893C43.6636 13.4543 43.6186 13.3643 43.5285 13.3193C43.4835 13.2293 43.3935 13.1843 43.2585 13.1843H15.0412C14.9062 13.1843 14.7936 13.2293 14.7036 13.3193C14.6586 13.3643 14.6361 13.4543 14.6361 13.5893V26.2804ZM62.9659 52V22.365C62.9659 20.6549 63.3935 19.0798 64.2485 17.6396C65.1486 16.1995 66.3187 15.0519 67.7588 14.1969C69.244 13.2968 70.8416 12.8467 72.5517 12.8467H94.221V22.4325H72.9568C72.8668 22.4325 72.7768 22.4775 72.6868 22.5675C72.5967 22.6576 72.5517 22.7476 72.5517 22.8376V52H62.9659ZM109.843 52C108.133 52 106.558 51.5725 105.117 50.7174C103.677 49.8173 102.507 48.6472 101.607 47.2071C100.752 45.767 100.325 44.1918 100.325 42.4817V22.365C100.325 20.6549 100.752 19.0798 101.607 17.6396C102.507 16.1995 103.677 15.0519 105.117 14.1969C106.558 13.2968 108.133 12.8467 109.843 12.8467H139.95V22.4325H110.315C110.225 22.4325 110.135 22.4775 110.045 22.5675C109.955 22.6576 109.91 22.7476 109.91 22.8376V42.0092C109.91 42.0992 109.955 42.1892 110.045 42.2792C110.135 42.3692 110.225 42.4142 110.315 42.4142H140.018V52H109.843ZM158.28 52C156.57 52 154.972 51.5725 153.487 50.7174C152.047 49.8173 150.899 48.6472 150.044 47.2071C149.189 45.767 148.761 44.1918 148.761 42.4817V27.563H178.869V22.8376C178.869 22.7476 178.824 22.6576 178.734 22.5675C178.644 22.4775 178.554 22.4325 178.464 22.4325H148.761V12.8467H178.936C180.692 12.8467 182.289 13.2968 183.729 14.1969C185.169 15.0519 186.317 16.1995 187.172 17.6396C188.027 19.0798 188.455 20.6549 188.455 22.365V52H158.28ZM158.752 42.4142H178.869V36.1362H158.347V42.0092C158.347 42.0992 158.392 42.1892 158.482 42.2792C158.572 42.3692 158.662 42.4142 158.752 42.4142ZM205.286 52C203.486 52 201.866 51.5725 200.426 50.7174C198.986 49.8173 197.838 48.6472 196.983 47.2071C196.128 45.767 195.7 44.1918 195.7 42.4817V22.365C195.7 20.6549 196.128 19.0798 196.983 17.6396C197.838 16.1995 198.986 15.0519 200.426 14.1969C201.866 13.2968 203.486 12.8467 205.286 12.8467H225.875V0.0206677H235.461V52H205.286ZM205.759 42.4142H225.47C225.56 42.4142 225.65 42.3692 225.74 42.2792C225.83 42.1892 225.875 42.0992 225.875 42.0092V22.8376C225.875 22.7476 225.83 22.6576 225.74 22.5675C225.65 22.4775 225.56 22.4325 225.47 22.4325H205.759C205.669 22.4325 205.579 22.4775 205.489 22.5675C205.399 22.6576 205.354 22.7476 205.354 22.8376V42.0092C205.354 42.0992 205.399 42.1892 205.489 42.2792C205.579 42.3692 205.669 42.4142 205.759 42.4142ZM244.709 52V12.8467H254.295V52H244.709ZM244.709 9.67397V0.0206677H254.295V9.67397H244.709ZM271.151 52C269.441 52 267.843 51.5725 266.358 50.7174C264.918 49.8173 263.771 48.6472 262.915 47.2071C262.06 45.767 261.633 44.1918 261.633 42.4817V27.563H291.74V22.8376C291.74 22.7476 291.695 22.6576 291.605 22.5675C291.515 22.4775 291.425 22.4325 291.335 22.4325H261.633V12.8467H291.808C293.563 12.8467 295.161 13.2968 296.601 14.1969C298.041 15.0519 299.189 16.1995 300.044 17.6396C300.899 19.0798 301.326 20.6549 301.326 22.365V52H271.151ZM271.624 42.4142H291.74V36.1362H271.219V42.0092C271.219 42.0992 271.264 42.1892 271.354 42.2792C271.444 42.3692 271.534 42.4142 271.624 42.4142ZM310.005 52V12.8467H340.18C341.936 12.8467 343.533 13.2968 344.973 14.1969C346.413 15.0519 347.561 16.1995 348.416 17.6396C349.271 19.0798 349.699 20.6549 349.699 22.365V52H340.113V22.8376C340.113 22.7476 340.068 22.6576 339.978 22.5675C339.933 22.4775 339.843 22.4325 339.708 22.4325H319.996C319.906 22.4325 319.816 22.4775 319.726 22.5675C319.636 22.6576 319.591 22.7476 319.591 22.8376V52H310.005Z" fill="url(#paint0_linear_3014_274733)"/>
</g>
<defs>
<filter id="filter0_d_3014_274733" x="0.694961" y="0.0214844" width="353.223" height="60.4167" filterUnits="userSpaceOnUse" color-interpolation-filters="sRGB">
<feFlood flood-opacity="0" result="BackgroundImageFix"/>
<feColorMatrix in="SourceAlpha" type="matrix" values="0 0 0 0 0 0 0 0 0 0 0 0 0 0 0 0 0 0 127 0" result="hardAlpha"/>
<feOffset dy="4.2191"/>
<feGaussianBlur stdDeviation="2.10955"/>
<feComposite in2="hardAlpha" operator="out"/>
<feColorMatrix type="matrix" values="0 0 0 0 0 0 0 0 0 0 0 0 0 0 0 0 0 0 0.25 0"/>
<feBlend mode="normal" in2="BackgroundImageFix" result="effect1_dropShadow_3014_274733"/>
<feBlend mode="normal" in="SourceGraphic" in2="effect1_dropShadow_3014_274733" result="shape"/>
</filter>
<linearGradient id="paint0_linear_3014_274733" x1="-8.75763" y1="35.75" x2="338.944" y2="46.6912" gradientUnits="userSpaceOnUse">
<stop stop-color="#E9E9E9"/>
<stop offset="1" stop-color="#EB72FF"/>
</linearGradient>
</defs>
</svg>
