<svg width="179" height="56" viewBox="0 0 179 56" fill="none" xmlns="http://www.w3.org/2000/svg">
<g filter="url(#filter0_d_3165_279912)">
<rect x="4.5" y="1.5" width="170" height="47" rx="13.5" fill="url(#paint0_linear_3165_279912)" stroke="url(#paint1_linear_3165_279912)" stroke-width="3"/>
</g>
<path opacity="0.7" d="M30.0419 32V14.1837H44.1217C44.6661 14.1837 45.161 14.3156 45.6064 14.5796C46.0683 14.8435 46.4313 15.2065 46.6952 15.6684C46.9591 16.1138 47.0911 16.6087 47.0911 17.1531V20.939C47.0911 21.17 47.0581 21.4009 46.9921 21.6319C46.9427 21.8463 46.8684 22.0525 46.7694 22.2505C47.1324 22.7949 47.4046 23.265 47.586 23.661C47.7675 24.0569 47.8582 24.461 47.8582 24.8735V29.0306C47.8582 29.575 47.7262 30.0781 47.4623 30.5401C47.1984 30.9855 46.8354 31.3401 46.3735 31.6041C45.9281 31.868 45.4332 32 44.8888 32H30.0419ZM33.0113 29.9957H44.8888C45.1528 29.9957 45.3755 29.9049 45.5569 29.7235C45.7549 29.5255 45.8539 29.2946 45.8539 29.0306V24.8735C45.8539 24.6095 45.7549 24.3868 45.5569 24.2054C45.3755 24.0074 45.1528 23.9084 44.8888 23.9084H33.0113C32.7473 23.9084 32.5164 24.0074 32.3184 24.2054C32.1369 24.3868 32.0462 24.6095 32.0462 24.8735V29.0306C32.0462 29.2946 32.1369 29.5255 32.3184 29.7235C32.5164 29.9049 32.7473 29.9957 33.0113 29.9957ZM33.0113 21.9041H44.1217C44.3857 21.9041 44.6084 21.8133 44.7898 21.6319C44.9713 21.4339 45.062 21.203 45.062 20.939V17.1531C45.062 16.8891 44.9713 16.6664 44.7898 16.4849C44.6084 16.287 44.3857 16.188 44.1217 16.188H33.0113C32.7473 16.188 32.5164 16.287 32.3184 16.4849C32.1369 16.6664 32.0462 16.8891 32.0462 17.1531V20.939C32.0462 21.203 32.1369 21.4339 32.3184 21.6319C32.5164 21.8133 32.7473 21.9041 33.0113 21.9041ZM53.4761 32C52.9317 32 52.4285 31.868 51.9666 31.6041C51.5212 31.3236 51.1583 30.9607 50.8779 30.5153C50.6139 30.0534 50.4819 29.5503 50.4819 29.0059V17.648H52.511V29.0059C52.511 29.2698 52.6018 29.5008 52.7832 29.6987C52.9812 29.8802 53.2121 29.9709 53.4761 29.9709H62.0873C62.3513 29.9709 62.5822 29.8802 62.7802 29.6987C62.9781 29.5008 63.0771 29.2698 63.0771 29.0059V17.648H65.1062V29.0059C65.1062 29.5503 64.966 30.0534 64.6855 30.5153C64.4216 30.9607 64.0587 31.3236 63.5968 31.6041C63.1513 31.868 62.6482 32 62.0873 32H53.4761ZM70.0629 37.6913V35.6375H79.0206C79.2845 35.6375 79.5072 35.5385 79.6887 35.3406C79.8866 35.1591 79.9856 34.9364 79.9856 34.6725V32H70.4093C69.8649 32 69.3618 31.868 68.8999 31.6041C68.4545 31.3236 68.0916 30.9607 67.8111 30.5153C67.5472 30.0534 67.4152 29.5503 67.4152 29.0059V17.6974H69.4443V29.0059C69.4443 29.2698 69.535 29.5008 69.7165 29.6987C69.9144 29.8802 70.1454 29.9709 70.4093 29.9709H79.0206C79.2845 29.9709 79.5072 29.8802 79.6887 29.6987C79.8866 29.5008 79.9856 29.2698 79.9856 29.0059V17.6974H82.0147V34.6725C82.0147 35.2333 81.8827 35.7365 81.6188 36.1819C81.3548 36.6438 80.9919 37.0067 80.53 37.2707C80.0846 37.5511 79.5814 37.6913 79.0206 37.6913H70.0629ZM91.4433 32V14.1837H94.19L107.255 29.7235V14.1837H109.26V32H106.513L93.4476 16.4602V32H91.4433ZM114.902 32C114.358 32 113.855 31.868 113.393 31.6041C112.947 31.3236 112.584 30.9607 112.304 30.5153C112.04 30.0534 111.908 29.5503 111.908 29.0059V20.6421C111.908 20.0977 112.04 19.6028 112.304 19.1574C112.584 18.6955 112.947 18.3326 113.393 18.0686C113.855 17.7882 114.358 17.648 114.902 17.648H123.513C124.074 17.648 124.577 17.7882 125.023 18.0686C125.485 18.3326 125.848 18.6955 126.112 19.1574C126.392 19.6028 126.532 20.0977 126.532 20.6421V29.0059C126.532 29.5503 126.392 30.0534 126.112 30.5153C125.848 30.9607 125.485 31.3236 125.023 31.6041C124.577 31.868 124.074 32 123.513 32H114.902ZM114.902 29.9709H123.513C123.777 29.9709 124 29.8802 124.182 29.6987C124.38 29.5008 124.479 29.2698 124.479 29.0059V20.6421C124.479 20.3781 124.38 20.1554 124.182 19.974C124 19.776 123.777 19.677 123.513 19.677H114.902C114.638 19.677 114.407 19.776 114.209 19.974C114.028 20.1554 113.937 20.3781 113.937 20.6421V29.0059C113.937 29.2698 114.028 29.5008 114.209 29.6987C114.407 29.8802 114.638 29.9709 114.902 29.9709ZM133.417 32L127.775 17.648H129.953L134.308 28.3378L138.935 17.648H141.608L146.532 28.313L150.59 17.648H152.792L147.373 32H145.616L140.271 20.1472L135.199 32H133.417Z" fill="white"/>
<defs>
<filter id="filter0_d_3165_279912" x="0.130742" y="0" width="178.739" height="55.7385" filterUnits="userSpaceOnUse" color-interpolation-filters="sRGB">
<feFlood flood-opacity="0" result="BackgroundImageFix"/>
<feColorMatrix in="SourceAlpha" type="matrix" values="0 0 0 0 0 0 0 0 0 0 0 0 0 0 0 0 0 0 127 0" result="hardAlpha"/>
<feOffset dy="2.86926"/>
<feGaussianBlur stdDeviation="1.43463"/>
<feComposite in2="hardAlpha" operator="out"/>
<feColorMatrix type="matrix" values="0 0 0 0 0 0 0 0 0 0 0 0 0 0 0 0 0 0 0.25 0"/>
<feBlend mode="normal" in2="BackgroundImageFix" result="effect1_dropShadow_3165_279912"/>
<feBlend mode="normal" in="SourceGraphic" in2="effect1_dropShadow_3165_279912" result="shape"/>
</filter>
<linearGradient id="paint0_linear_3165_279912" x1="-27.7075" y1="23.1059" x2="186.818" y2="24.9766" gradientUnits="userSpaceOnUse">
<stop stop-color="#6400FF" stop-opacity="0.88"/>
<stop offset="0.523958" stop-color="#874691" stop-opacity="0.86"/>
<stop offset="1" stop-color="#FF03F5" stop-opacity="0.67"/>
</linearGradient>
<linearGradient id="paint1_linear_3165_279912" x1="3" y1="25" x2="180.47" y2="25" gradientUnits="userSpaceOnUse">
<stop stop-color="#131BB0"/>
<stop offset="0.482292" stop-color="#B84C93"/>
<stop offset="1" stop-color="#FF00F5"/>
<stop offset="1" stop-color="#DB34CA"/>
</linearGradient>
</defs>
</svg>
