<svg width="31" height="31" viewBox="0 0 31 31" fill="none" xmlns="http://www.w3.org/2000/svg">
<circle cx="15.5" cy="15.5" r="15.5" fill="#040404"/>
<path d="M17.5817 10.7195C15.6899 8.82788 12.611 8.82788 10.7193 10.7195C8.82795 12.6115 8.82795 15.6898 10.7193 17.5818C12.4039 19.2659 15.0276 19.4464 16.9181 18.1313C16.9579 18.3195 17.049 18.4991 17.1954 18.6455L19.9503 21.4003C20.3518 21.8009 21.0006 21.8009 21.4 21.4003C21.801 20.9993 21.801 20.3506 21.4 19.9507L18.645 17.1951C18.4994 17.05 18.3194 16.9585 18.1312 16.9188C19.4471 15.028 19.2667 12.4048 17.5817 10.7195ZM16.7119 16.7121C15.2995 18.1243 13.001 18.1243 11.5891 16.7121C10.1775 15.2999 10.1775 13.0019 11.5891 11.5896C13.001 10.1778 15.2995 10.1778 16.7119 11.5896C18.1242 13.0019 18.1242 15.2999 16.7119 16.7121Z" fill="#FCFCFC"/>
</svg>
