<svg width="231" height="43" viewBox="0 0 231 43" fill="none" xmlns="http://www.w3.org/2000/svg">
<g filter="url(#filter0_d_2905_273622)">
<rect x="4.04965" y="1.04965" width="222.901" height="35.8892" rx="9.44689" fill="url(#paint0_linear_2905_273622)" stroke="url(#paint1_linear_2905_273622)" stroke-width="2.09931"/>
</g>
<path opacity="0.7" d="M48.0008 24V11.5154H49.4033V22.5974H60.4681V24H48.0008ZM61.4083 24V13.9569H62.8282V24H61.4083ZM61.4083 12.0868V10.6669H62.8282V12.0868H61.4083ZM65.0447 24V13.9569H78.3086C78.7011 13.9569 79.0531 14.055 79.3648 14.2512C79.6881 14.4359 79.942 14.6899 80.1267 15.0131C80.3114 15.3248 80.4038 15.6711 80.4038 16.0521V24H79.0012V16.0521C79.0012 15.8674 78.9319 15.7115 78.7934 15.5846C78.6549 15.446 78.4933 15.3768 78.3086 15.3768H74.1355C73.9508 15.3768 73.7892 15.446 73.6506 15.5846C73.5236 15.7115 73.4602 15.8674 73.4602 16.0521V24H72.023V16.0521C72.023 15.8674 71.9537 15.7115 71.8152 15.5846C71.6882 15.446 71.5323 15.3768 71.3476 15.3768H67.1572C66.9725 15.3768 66.8109 15.446 66.6724 15.5846C66.5454 15.7115 66.4819 15.8674 66.4819 16.0521V24H65.0447ZM81.9369 24V13.9569H83.3568V24H81.9369ZM81.9369 12.0868V10.6669H83.3568V12.0868H81.9369ZM87.6512 24C87.2587 24 86.9009 23.9076 86.5776 23.7229C86.266 23.5267 86.0178 23.2727 85.8331 22.9611C85.6484 22.6378 85.556 22.2857 85.556 21.9048V10.6669H86.9759V13.9569H91.3221V15.3768H86.9759V21.9048C86.9759 22.0895 87.0394 22.2511 87.1664 22.3896C87.3049 22.5166 87.4665 22.5801 87.6512 22.5801H91.3221V24H87.6512ZM94.7187 24C94.3378 24 93.9857 23.9076 93.6625 23.7229C93.3508 23.5267 93.0968 23.2727 92.9006 22.9611C92.7159 22.6378 92.6235 22.2857 92.6235 21.9048V16.0521C92.6235 15.6711 92.7159 15.3248 92.9006 15.0131C93.0968 14.6899 93.3508 14.4359 93.6625 14.2512C93.9857 14.055 94.3378 13.9569 94.7187 13.9569H100.745C101.137 13.9569 101.489 14.055 101.801 14.2512C102.124 14.4359 102.378 14.6899 102.563 15.0131C102.759 15.3248 102.857 15.6711 102.857 16.0521V19.6884H94.0434V21.9048C94.0434 22.0895 94.1069 22.2511 94.2339 22.3896C94.3724 22.5166 94.534 22.5801 94.7187 22.5801H102.857V24H94.7187ZM94.0434 18.2685H101.42V16.0521C101.42 15.8674 101.351 15.7115 101.212 15.5846C101.085 15.446 100.929 15.3768 100.745 15.3768H94.7187C94.534 15.3768 94.3724 15.446 94.2339 15.5846C94.1069 15.7115 94.0434 15.8674 94.0434 16.0521V18.2685ZM106.24 24C105.848 24 105.49 23.9076 105.167 23.7229C104.855 23.5267 104.601 23.2727 104.405 22.9611C104.22 22.6378 104.128 22.2857 104.128 21.9048V16.0521C104.128 15.6711 104.22 15.3248 104.405 15.0131C104.601 14.6899 104.855 14.4359 105.167 14.2512C105.49 14.055 105.848 13.9569 106.24 13.9569H112.942V10.6669H114.361V24H106.24ZM106.24 22.5801H112.266C112.451 22.5801 112.607 22.5166 112.734 22.3896C112.872 22.2511 112.942 22.0895 112.942 21.9048V16.0521C112.942 15.8674 112.872 15.7115 112.734 15.5846C112.607 15.446 112.451 15.3768 112.266 15.3768H106.24C106.056 15.3768 105.894 15.446 105.755 15.5846C105.629 15.7115 105.565 15.8674 105.565 16.0521V21.9048C105.565 22.0895 105.629 22.2511 105.755 22.3896C105.894 22.5166 106.056 22.5801 106.24 22.5801ZM121.001 24V11.5327H132.378V12.9352H122.404V17.0564H130.421V18.4763H122.404V22.5974H132.378V24H121.001ZM135.765 24C135.373 24 135.015 23.9076 134.691 23.7229C134.38 23.5267 134.126 23.2727 133.93 22.9611C133.745 22.6378 133.652 22.2857 133.652 21.9048V16.0521C133.652 15.6711 133.745 15.3248 133.93 15.0131C134.126 14.6899 134.38 14.4359 134.691 14.2512C135.015 14.055 135.373 13.9569 135.765 13.9569H142.466V10.6669H143.886V24H135.765ZM135.765 22.5801H141.791C141.976 22.5801 142.131 22.5166 142.258 22.3896C142.397 22.2511 142.466 22.0895 142.466 21.9048V16.0521C142.466 15.8674 142.397 15.7115 142.258 15.5846C142.131 15.446 141.976 15.3768 141.791 15.3768H135.765C135.58 15.3768 135.419 15.446 135.28 15.5846C135.153 15.7115 135.09 15.8674 135.09 16.0521V21.9048C135.09 22.0895 135.153 22.2511 135.28 22.3896C135.419 22.5166 135.58 22.5801 135.765 22.5801ZM145.704 24V13.9569H147.124V24H145.704ZM145.704 12.0868V10.6669H147.124V12.0868H145.704ZM151.418 24C151.026 24 150.668 23.9076 150.345 23.7229C150.033 23.5267 149.785 23.2727 149.6 22.9611C149.416 22.6378 149.323 22.2857 149.323 21.9048V10.6669H150.743V13.9569H155.089V15.3768H150.743V21.9048C150.743 22.0895 150.807 22.2511 150.934 22.3896C151.072 22.5166 151.234 22.5801 151.418 22.5801H155.089V24H151.418ZM156.493 24V13.9569H157.913V24H156.493ZM156.493 12.0868V10.6669H157.913V12.0868H156.493ZM162.172 24C161.791 24 161.439 23.9076 161.116 23.7229C160.804 23.5267 160.55 23.2727 160.354 22.9611C160.169 22.6378 160.077 22.2857 160.077 21.9048V16.0521C160.077 15.6711 160.169 15.3248 160.354 15.0131C160.55 14.6899 160.804 14.4359 161.116 14.2512C161.439 14.055 161.791 13.9569 162.172 13.9569H168.198C168.591 13.9569 168.943 14.055 169.254 14.2512C169.578 14.4359 169.832 14.6899 170.016 15.0131C170.213 15.3248 170.311 15.6711 170.311 16.0521V21.9048C170.311 22.2857 170.213 22.6378 170.016 22.9611C169.832 23.2727 169.578 23.5267 169.254 23.7229C168.943 23.9076 168.591 24 168.198 24H162.172ZM162.172 22.5801H168.198C168.383 22.5801 168.539 22.5166 168.666 22.3896C168.804 22.2511 168.874 22.0895 168.874 21.9048V16.0521C168.874 15.8674 168.804 15.7115 168.666 15.5846C168.539 15.446 168.383 15.3768 168.198 15.3768H162.172C161.988 15.3768 161.826 15.446 161.687 15.5846C161.56 15.7115 161.497 15.8674 161.497 16.0521V21.9048C161.497 22.0895 161.56 22.2511 161.687 22.3896C161.826 22.5166 161.988 22.5801 162.172 22.5801ZM171.865 24V13.9569H180.003C180.384 13.9569 180.73 14.055 181.042 14.2512C181.365 14.4359 181.619 14.6899 181.804 15.0131C182 15.3248 182.098 15.6711 182.098 16.0521V24H180.678V16.0521C180.678 15.8674 180.609 15.7115 180.47 15.5846C180.343 15.446 180.188 15.3768 180.003 15.3768H173.977C173.792 15.3768 173.631 15.446 173.492 15.5846C173.354 15.7115 173.284 15.8674 173.284 16.0521V24H171.865Z" fill="white"/>
<defs>
<filter id="filter0_d_2905_273622" x="0.992181" y="0" width="229.016" height="42.0039" filterUnits="userSpaceOnUse" color-interpolation-filters="sRGB">
<feFlood flood-opacity="0" result="BackgroundImageFix"/>
<feColorMatrix in="SourceAlpha" type="matrix" values="0 0 0 0 0 0 0 0 0 0 0 0 0 0 0 0 0 0 127 0" result="hardAlpha"/>
<feOffset dy="2.00782"/>
<feGaussianBlur stdDeviation="1.00391"/>
<feComposite in2="hardAlpha" operator="out"/>
<feColorMatrix type="matrix" values="0 0 0 0 0 0 0 0 0 0 0 0 0 0 0 0 0 0 0.25 0"/>
<feBlend mode="normal" in2="BackgroundImageFix" result="effect1_dropShadow_2905_273622"/>
<feBlend mode="normal" in="SourceGraphic" in2="effect1_dropShadow_2905_273622" result="shape"/>
</filter>
<linearGradient id="paint0_linear_2905_273622" x1="-36.9375" y1="17.5552" x2="242.029" y2="21.7192" gradientUnits="userSpaceOnUse">
<stop stop-color="#6400FF" stop-opacity="0.88"/>
<stop offset="0.523958" stop-color="#874691" stop-opacity="0.86"/>
<stop offset="1" stop-color="#FF03F5" stop-opacity="0.67"/>
</linearGradient>
<linearGradient id="paint1_linear_2905_273622" x1="3" y1="18.9942" x2="233.813" y2="18.9942" gradientUnits="userSpaceOnUse">
<stop stop-color="#131BB0"/>
<stop offset="0.482292" stop-color="#B84C93"/>
<stop offset="1" stop-color="#FF00F5"/>
<stop offset="1" stop-color="#DB34CA"/>
</linearGradient>
</defs>
</svg>
