<svg width="339" height="57" viewBox="0 0 339 57" fill="none" xmlns="http://www.w3.org/2000/svg">
<g filter="url(#filter0_d_3014_274380)">
<path d="M4.688 37V2.44H10.016L24.368 19.528L38.72 2.44H44.048V37H40.16V6.856L24.368 25.624L8.576 6.856V37H4.688ZM50.4672 37V9.16H54.4032V37H50.4672ZM50.4672 3.976V0.0399981H54.4032V3.976H50.4672ZM61.2845 37V9.16H83.8445C84.9005 9.16 85.8605 9.432 86.7245 9.976C87.6205 10.488 88.3245 11.192 88.8365 12.088C89.3805 12.952 89.6525 13.912 89.6525 14.968V37H85.7165V14.968C85.7165 14.456 85.5245 14.024 85.1405 13.672C84.7885 13.288 84.3565 13.096 83.8445 13.096H67.1405C66.6285 13.096 66.1805 13.288 65.7965 13.672C65.4125 14.024 65.2205 14.456 65.2205 14.968V37H61.2845ZM101.906 37C100.818 37 99.8264 36.744 98.9304 36.232C98.0664 35.688 97.3784 34.984 96.8664 34.12C96.3544 33.224 96.0984 32.248 96.0984 31.192V0.0399981H100.034V9.16H112.082V13.096H100.034V31.192C100.034 31.704 100.21 32.152 100.562 32.536C100.946 32.888 101.394 33.064 101.906 33.064H112.082V37H101.906ZM117.412 37V9.16H121.348V37H117.412ZM117.412 3.976V0.0399981H121.348V3.976H117.412ZM128.229 37V9.16H150.789C151.845 9.16 152.805 9.432 153.669 9.976C154.565 10.488 155.269 11.192 155.781 12.088C156.325 12.952 156.597 13.912 156.597 14.968V37H152.661V14.968C152.661 14.456 152.469 14.024 152.085 13.672C151.733 13.288 151.301 13.096 150.789 13.096H134.085C133.573 13.096 133.125 13.288 132.741 13.672C132.357 14.024 132.165 14.456 132.165 14.968V37H128.229ZM167.603 47.992V44.008H184.979C185.491 44.008 185.923 43.816 186.275 43.432C186.659 43.08 186.851 42.648 186.851 42.136V37H168.275C167.219 37 166.243 36.744 165.347 36.232C164.483 35.688 163.779 34.984 163.235 34.12C162.723 33.224 162.467 32.248 162.467 31.192V14.968C162.467 13.912 162.723 12.952 163.235 12.088C163.779 11.192 164.483 10.488 165.347 9.976C166.243 9.432 167.219 9.16 168.275 9.16H184.979C186.067 9.16 187.043 9.432 187.907 9.976C188.803 10.488 189.507 11.192 190.019 12.088C190.531 12.952 190.787 13.912 190.787 14.968V42.136C190.787 43.224 190.531 44.2 190.019 45.064C189.507 45.96 188.803 46.664 187.907 47.176C187.043 47.72 186.067 47.992 184.979 47.992H167.603ZM168.275 33.064H184.979C185.491 33.064 185.923 32.888 186.275 32.536C186.659 32.152 186.851 31.704 186.851 31.192V14.968C186.851 14.456 186.659 14.024 186.275 13.672C185.923 13.288 185.491 13.096 184.979 13.096H168.275C167.763 13.096 167.315 13.288 166.931 13.672C166.579 14.024 166.403 14.456 166.403 14.968V31.192C166.403 31.704 166.579 32.152 166.931 32.536C167.315 32.888 167.763 33.064 168.275 33.064ZM211.911 37V2.44H217.239L242.583 32.584V2.44H246.471V37H241.143L215.799 6.856V37H211.911ZM258.857 37C257.801 37 256.825 36.744 255.929 36.232C255.065 35.688 254.361 34.984 253.817 34.12C253.305 33.224 253.049 32.248 253.049 31.192V14.968C253.049 13.912 253.305 12.952 253.817 12.088C254.361 11.192 255.065 10.488 255.929 9.976C256.825 9.432 257.801 9.16 258.857 9.16H275.561C276.649 9.16 277.625 9.432 278.489 9.976C279.385 10.488 280.089 11.192 280.601 12.088C281.145 12.952 281.417 13.912 281.417 14.968V31.192C281.417 32.248 281.145 33.224 280.601 34.12C280.089 34.984 279.385 35.688 278.489 36.232C277.625 36.744 276.649 37 275.561 37H258.857ZM258.857 33.064H275.561C276.073 33.064 276.505 32.888 276.857 32.536C277.241 32.152 277.433 31.704 277.433 31.192V14.968C277.433 14.456 277.241 14.024 276.857 13.672C276.505 13.288 276.073 13.096 275.561 13.096H258.857C258.345 13.096 257.897 13.288 257.513 13.672C257.161 14.024 256.985 14.456 256.985 14.968V31.192C256.985 31.704 257.161 32.152 257.513 32.536C257.897 32.888 258.345 33.064 258.857 33.064ZM296.211 37L285.267 9.16H289.491L297.939 29.896L306.915 9.16H312.099L321.651 29.848L329.523 9.16H333.795L323.283 37H319.875L309.507 14.008L299.667 37H296.211Z" fill="url(#paint0_linear_3014_274380)"/>
</g>
<defs>
<filter id="filter0_d_3014_274380" x="0.468399" y="0.0390625" width="337.548" height="56.3913" filterUnits="userSpaceOnUse" color-interpolation-filters="sRGB">
<feFlood flood-opacity="0" result="BackgroundImageFix"/>
<feColorMatrix in="SourceAlpha" type="matrix" values="0 0 0 0 0 0 0 0 0 0 0 0 0 0 0 0 0 0 127 0" result="hardAlpha"/>
<feOffset dy="4.2191"/>
<feGaussianBlur stdDeviation="2.10955"/>
<feComposite in2="hardAlpha" operator="out"/>
<feColorMatrix type="matrix" values="0 0 0 0 0 0 0 0 0 0 0 0 0 0 0 0 0 0 0.25 0"/>
<feBlend mode="normal" in2="BackgroundImageFix" result="effect1_dropShadow_3014_274380"/>
<feBlend mode="normal" in="SourceGraphic" in2="effect1_dropShadow_3014_274380" result="shape"/>
</filter>
<linearGradient id="paint0_linear_3014_274380" x1="-6.64661" y1="28.75" x2="301.53" y2="37.3433" gradientUnits="userSpaceOnUse">
<stop stop-color="#E9E9E9"/>
<stop offset="1" stop-color="#EB72FF"/>
</linearGradient>
</defs>
</svg>
