<svg width="310" height="130" viewBox="0 0 310 130" fill="none" xmlns="http://www.w3.org/2000/svg">
<path d="M306.5 65C306.5 72.7636 302.763 80.4709 295.355 87.8155C287.934 95.1729 277.018 101.96 263.248 107.734C235.722 119.277 197.453 126.5 155 126.5C112.547 126.5 74.2777 119.277 46.752 107.734C32.9818 101.96 22.0657 95.1729 14.6449 87.8155C7.23714 80.4709 3.5 72.7636 3.5 65C3.5 57.2364 7.23714 49.5291 14.6449 42.1845C22.0657 34.8271 32.9818 28.0403 46.752 22.2657C74.2777 10.7227 112.547 3.5 155 3.5C197.453 3.5 235.722 10.7227 263.248 22.2657C277.018 28.0403 287.934 34.8271 295.355 42.1845C302.763 49.5291 306.5 57.2364 306.5 65Z" stroke="url(#paint0_linear_3085_278619)" stroke-width="7"/>
<g filter="url(#filter0_d_3085_278619)">
<path d="M63.7111 90V42.2862H72.7899L103.406 78.7342V42.2862H111.425V90H102.346L71.6634 53.4857V90H63.7111ZM118.982 90V42.2862H162.786V50.3048H127V62.1669H155.827V70.1192H127V90H118.982ZM184.881 90V50.3048H165V42.2862H212.714V50.3048H192.833V90H184.881ZM223.617 90C222.343 90 221.172 89.6901 220.105 89.0704C219.072 88.4507 218.246 87.6072 217.626 86.5399C217.006 85.4726 216.696 84.302 216.696 83.0281V80.5493H222.894V82.8216C222.894 83.097 222.98 83.3208 223.152 83.4929C223.324 83.6651 223.548 83.7512 223.823 83.7512H246.65C246.925 83.7512 247.149 83.6651 247.321 83.4929C247.528 83.3208 247.631 83.097 247.631 82.8216V75.4366C247.631 75.1956 247.528 74.989 247.321 74.8169C247.149 74.6103 246.925 74.507 246.65 74.507H223.617C222.343 74.507 221.172 74.1971 220.105 73.5774C219.072 72.9577 218.246 72.1314 217.626 71.0985C217.006 70.0312 216.696 68.8607 216.696 67.5868V59.7886C216.696 58.5148 217.006 57.3442 217.626 56.2769C218.246 55.2096 219.072 54.3661 220.105 53.7464C221.172 53.1266 222.343 52.8168 223.617 52.8168H246.908C248.182 52.8168 249.335 53.1266 250.368 53.7464C251.435 54.3661 252.279 55.2096 252.898 56.2769C253.553 57.3442 253.88 58.5148 253.88 59.7886V62.2675H247.631V59.9952C247.631 59.7198 247.528 59.496 247.321 59.3238C247.149 59.1517 246.925 59.0656 246.65 59.0656H223.823C223.548 59.0656 223.324 59.1517 223.152 59.3238C222.98 59.496 222.894 59.7198 222.894 59.9952V67.3802C222.894 67.6212 222.98 67.845 223.152 68.0516C223.324 68.2237 223.548 68.3098 223.823 68.3098H246.908C248.182 68.3098 249.335 68.6196 250.368 69.2394C251.435 69.8591 252.279 70.7026 252.898 71.7699C253.553 72.8028 253.88 73.9561 253.88 75.23V83.0281C253.88 84.302 253.553 85.4726 252.898 86.5399C252.279 87.6072 251.435 88.4507 250.368 89.0704C249.335 89.6901 248.182 90 246.908 90H223.617Z" fill="url(#paint1_linear_3085_278619)"/>
</g>
<defs>
<filter id="filter0_d_3085_278619" x="59.5691" y="42.2871" width="198.452" height="55.9965" filterUnits="userSpaceOnUse" color-interpolation-filters="sRGB">
<feFlood flood-opacity="0" result="BackgroundImageFix"/>
<feColorMatrix in="SourceAlpha" type="matrix" values="0 0 0 0 0 0 0 0 0 0 0 0 0 0 0 0 0 0 127 0" result="hardAlpha"/>
<feOffset dy="4.14182"/>
<feGaussianBlur stdDeviation="2.07091"/>
<feComposite in2="hardAlpha" operator="out"/>
<feColorMatrix type="matrix" values="0 0 0 0 0 0 0 0 0 0 0 0 0 0 0 0 0 0 0.25 0"/>
<feBlend mode="normal" in2="BackgroundImageFix" result="effect1_dropShadow_3085_278619"/>
<feBlend mode="normal" in="SourceGraphic" in2="effect1_dropShadow_3085_278619" result="shape"/>
</filter>
<linearGradient id="paint0_linear_3085_278619" x1="183" y1="130" x2="181" y2="-12.5" gradientUnits="userSpaceOnUse">
<stop stop-color="#840487"/>
<stop offset="1" stop-color="#120448"/>
</linearGradient>
<linearGradient id="paint1_linear_3085_278619" x1="-21.9637" y1="25" x2="292.358" y2="137.111" gradientUnits="userSpaceOnUse">
<stop stop-color="#2A08B3"/>
<stop offset="1" stop-color="#EB72FF"/>
</linearGradient>
</defs>
</svg>
