<svg width="231" height="43" viewBox="0 0 231 43" fill="none" xmlns="http://www.w3.org/2000/svg">
<g filter="url(#filter0_d_2905_273627)">
<rect x="4.04965" y="1.04965" width="222.901" height="35.8892" rx="9.44689" fill="url(#paint0_linear_2905_273627)" stroke="url(#paint1_linear_2905_273627)" stroke-width="2.09931"/>
</g>
<path opacity="0.7" d="M77.2685 24C76.8876 24 76.5355 23.9076 76.2123 23.7229C75.9006 23.5382 75.6524 23.2901 75.4677 22.9784C75.283 22.6551 75.1907 22.3031 75.1907 21.9221V11.5327H76.5932V21.9221C76.5932 22.1068 76.6567 22.2684 76.7837 22.407C76.9222 22.5339 77.0838 22.5974 77.2685 22.5974H85.5801C85.7648 22.5974 85.9206 22.5339 86.0476 22.407C86.1861 22.2684 86.2554 22.1068 86.2554 21.9221V11.5327H87.658V21.9221C87.658 22.3031 87.5656 22.6551 87.3809 22.9784C87.1962 23.2901 86.9423 23.5382 86.619 23.7229C86.3074 23.9076 85.961 24 85.5801 24H77.2685ZM89.5302 27.9826V13.9569H97.6686C98.0496 13.9569 98.3959 14.055 98.7076 14.2512C99.0308 14.4359 99.2848 14.6899 99.4695 15.0131C99.6657 15.3248 99.7638 15.6711 99.7638 16.0521V21.9048C99.7638 22.2857 99.6657 22.6378 99.4695 22.9611C99.2848 23.2727 99.0308 23.5267 98.7076 23.7229C98.3959 23.9076 98.0496 24 97.6686 24H90.9501V27.9826H89.5302ZM91.6428 22.5801H97.6686C97.8533 22.5801 98.0092 22.5166 98.1362 22.3896C98.2747 22.2511 98.344 22.0895 98.344 21.9048V16.0521C98.344 15.8674 98.2747 15.7115 98.1362 15.5846C98.0092 15.446 97.8533 15.3768 97.6686 15.3768H91.6428C91.4581 15.3768 91.2965 15.446 91.1579 15.5846C91.0194 15.7115 90.9501 15.8674 90.9501 16.0521V21.9048C90.9501 22.0895 91.0194 22.2511 91.1579 22.3896C91.2965 22.5166 91.4581 22.5801 91.6428 22.5801ZM102.657 27.9653V26.5281H108.925C109.11 26.5281 109.265 26.4588 109.392 26.3203C109.531 26.1933 109.6 26.0375 109.6 25.8528V24H102.899C102.518 24 102.166 23.9076 101.843 23.7229C101.531 23.5267 101.277 23.2727 101.081 22.9611C100.896 22.6378 100.804 22.2857 100.804 21.9048V16.0521C100.804 15.6711 100.896 15.3248 101.081 15.0131C101.277 14.6899 101.531 14.4359 101.843 14.2512C102.166 14.055 102.518 13.9569 102.899 13.9569H108.925C109.317 13.9569 109.67 14.055 109.981 14.2512C110.304 14.4359 110.558 14.6899 110.743 15.0131C110.928 15.3248 111.02 15.6711 111.02 16.0521V25.8528C111.02 26.2453 110.928 26.5974 110.743 26.909C110.558 27.2323 110.304 27.4862 109.981 27.6709C109.67 27.8672 109.317 27.9653 108.925 27.9653H102.657ZM102.899 22.5801H108.925C109.11 22.5801 109.265 22.5166 109.392 22.3896C109.531 22.2511 109.6 22.0895 109.6 21.9048V16.0521C109.6 15.8674 109.531 15.7115 109.392 15.5846C109.265 15.446 109.11 15.3768 108.925 15.3768H102.899C102.714 15.3768 102.553 15.446 102.414 15.5846C102.287 15.7115 102.224 15.8674 102.224 16.0521V21.9048C102.224 22.0895 102.287 22.2511 102.414 22.3896C102.553 22.5166 102.714 22.5801 102.899 22.5801ZM112.561 24V16.0521C112.561 15.6711 112.653 15.3248 112.838 15.0131C113.034 14.6899 113.288 14.4359 113.6 14.2512C113.923 14.055 114.275 13.9569 114.656 13.9569H120.301V15.3768H114.656C114.471 15.3768 114.31 15.446 114.171 15.5846C114.044 15.7115 113.981 15.8674 113.981 16.0521V24H112.561ZM123.517 24C123.136 24 122.784 23.9076 122.46 23.7229C122.149 23.5267 121.895 23.2727 121.699 22.9611C121.514 22.6378 121.422 22.2857 121.422 21.9048V18.2685H130.218V16.0521C130.218 15.8674 130.149 15.7115 130.01 15.5846C129.883 15.446 129.727 15.3768 129.543 15.3768H121.422V13.9569H129.543C129.935 13.9569 130.287 14.055 130.599 14.2512C130.922 14.4359 131.176 14.6899 131.361 15.0131C131.557 15.3248 131.655 15.6711 131.655 16.0521V24H123.517ZM123.517 22.5801H130.218V19.6884H122.841V21.9048C122.841 22.0895 122.905 22.2511 123.032 22.3896C123.17 22.5166 123.332 22.5801 123.517 22.5801ZM135.055 24C134.662 24 134.304 23.9076 133.981 23.7229C133.67 23.5267 133.416 23.2727 133.219 22.9611C133.035 22.6378 132.942 22.2857 132.942 21.9048V16.0521C132.942 15.6711 133.035 15.3248 133.219 15.0131C133.416 14.6899 133.67 14.4359 133.981 14.2512C134.304 14.055 134.662 13.9569 135.055 13.9569H141.756V10.6669H143.176V24H135.055ZM135.055 22.5801H141.081C141.265 22.5801 141.421 22.5166 141.548 22.3896C141.687 22.2511 141.756 22.0895 141.756 21.9048V16.0521C141.756 15.8674 141.687 15.7115 141.548 15.5846C141.421 15.446 141.265 15.3768 141.081 15.3768H135.055C134.87 15.3768 134.708 15.446 134.57 15.5846C134.443 15.7115 134.379 15.8674 134.379 16.0521V21.9048C134.379 22.0895 134.443 22.2511 134.57 22.3896C134.708 22.5166 134.87 22.5801 135.055 22.5801ZM146.734 24C146.353 24 146.001 23.9076 145.677 23.7229C145.366 23.5267 145.112 23.2727 144.915 22.9611C144.731 22.6378 144.638 22.2857 144.638 21.9048V16.0521C144.638 15.6711 144.731 15.3248 144.915 15.0131C145.112 14.6899 145.366 14.4359 145.677 14.2512C146.001 14.055 146.353 13.9569 146.734 13.9569H152.759C153.152 13.9569 153.504 14.055 153.816 14.2512C154.139 14.4359 154.393 14.6899 154.578 15.0131C154.774 15.3248 154.872 15.6711 154.872 16.0521V19.6884H146.058V21.9048C146.058 22.0895 146.122 22.2511 146.249 22.3896C146.387 22.5166 146.549 22.5801 146.734 22.5801H154.872V24H146.734ZM146.058 18.2685H153.435V16.0521C153.435 15.8674 153.366 15.7115 153.227 15.5846C153.1 15.446 152.944 15.3768 152.759 15.3768H146.734C146.549 15.3768 146.387 15.446 146.249 15.5846C146.122 15.7115 146.058 15.8674 146.058 16.0521V18.2685Z" fill="white"/>
<defs>
<filter id="filter0_d_2905_273627" x="0.992181" y="0" width="229.016" height="42.0039" filterUnits="userSpaceOnUse" color-interpolation-filters="sRGB">
<feFlood flood-opacity="0" result="BackgroundImageFix"/>
<feColorMatrix in="SourceAlpha" type="matrix" values="0 0 0 0 0 0 0 0 0 0 0 0 0 0 0 0 0 0 127 0" result="hardAlpha"/>
<feOffset dy="2.00782"/>
<feGaussianBlur stdDeviation="1.00391"/>
<feComposite in2="hardAlpha" operator="out"/>
<feColorMatrix type="matrix" values="0 0 0 0 0 0 0 0 0 0 0 0 0 0 0 0 0 0 0.25 0"/>
<feBlend mode="normal" in2="BackgroundImageFix" result="effect1_dropShadow_2905_273627"/>
<feBlend mode="normal" in="SourceGraphic" in2="effect1_dropShadow_2905_273627" result="shape"/>
</filter>
<linearGradient id="paint0_linear_2905_273627" x1="-36.9375" y1="17.5552" x2="242.029" y2="21.7192" gradientUnits="userSpaceOnUse">
<stop stop-color="#6400FF" stop-opacity="0.88"/>
<stop offset="0.523958" stop-color="#874691" stop-opacity="0.86"/>
<stop offset="1" stop-color="#FF03F5" stop-opacity="0.67"/>
</linearGradient>
<linearGradient id="paint1_linear_2905_273627" x1="3" y1="18.9942" x2="233.813" y2="18.9942" gradientUnits="userSpaceOnUse">
<stop stop-color="#131BB0"/>
<stop offset="0.482292" stop-color="#B84C93"/>
<stop offset="1" stop-color="#FF00F5"/>
<stop offset="1" stop-color="#DB34CA"/>
</linearGradient>
</defs>
</svg>
