<svg width="143" height="56" viewBox="0 0 143 56" fill="none" xmlns="http://www.w3.org/2000/svg">
<g filter="url(#filter0_d_3014_274684)">
<rect x="4.5" y="1.5" width="134" height="47" rx="13.5" fill="url(#paint0_linear_3014_274684)" stroke="url(#paint1_linear_3014_274684)" stroke-width="3"/>
</g>
<path opacity="0.7" d="M35.9912 30L27.6512 15.6H29.5512L36.9312 28.42L44.2912 15.6H46.1912L37.8712 30H35.9912ZM48.0498 30V18.4H49.6898V30H48.0498ZM48.0498 16.24V14.6H49.6898V16.24H48.0498ZM54.6099 30C54.1699 30 53.7633 29.8933 53.3899 29.68C53.0299 29.4533 52.7366 29.16 52.5099 28.8C52.2966 28.4267 52.1899 28.02 52.1899 27.58V20.82C52.1899 20.38 52.2966 19.98 52.5099 19.62C52.7366 19.2467 53.0299 18.9533 53.3899 18.74C53.7633 18.5133 54.1699 18.4 54.6099 18.4H61.5699C62.0233 18.4 62.4299 18.5133 62.7899 18.74C63.1633 18.9533 63.4566 19.2467 63.6699 19.62C63.8966 19.98 64.0099 20.38 64.0099 20.82V25.02H53.8299V27.58C53.8299 27.7933 53.9033 27.98 54.0499 28.14C54.2099 28.2867 54.3966 28.36 54.6099 28.36H64.0099V30H54.6099ZM53.8299 23.38H62.3499V20.82C62.3499 20.6067 62.2699 20.4267 62.1099 20.28C61.9633 20.12 61.7833 20.04 61.5699 20.04H54.6099C54.3966 20.04 54.2099 20.12 54.0499 20.28C53.9033 20.4267 53.8299 20.6067 53.8299 20.82V23.38ZM69.6721 30L65.1121 18.4H66.8721L70.3921 27.04L74.1321 18.4H76.2921L80.2721 27.02L83.5521 18.4H85.3321L80.9521 30H79.5321L75.2121 20.42L71.1121 30H69.6721ZM94.7471 30C94.3071 30 93.9004 29.8933 93.5271 29.68C93.1671 29.4533 92.8738 29.16 92.6471 28.8C92.4338 28.4267 92.3271 28.02 92.3271 27.58V23.38H102.487V20.82C102.487 20.6067 102.407 20.4267 102.247 20.28C102.1 20.12 101.92 20.04 101.707 20.04H92.3271V18.4H101.707C102.16 18.4 102.567 18.5133 102.927 18.74C103.3 18.9533 103.594 19.2467 103.807 19.62C104.034 19.98 104.147 20.38 104.147 20.82V30H94.7471ZM94.7471 28.36H102.487V25.02H93.9671V27.58C93.9671 27.7933 94.0404 27.98 94.1871 28.14C94.3471 28.2867 94.5338 28.36 94.7471 28.36ZM108.439 30C107.999 30 107.592 29.8933 107.219 29.68C106.859 29.4533 106.565 29.16 106.339 28.8C106.125 28.4267 106.019 28.02 106.019 27.58V14.6H107.659V27.58C107.659 27.7933 107.732 27.98 107.879 28.14C108.039 28.2867 108.225 28.36 108.439 28.36H110.399V30H108.439ZM114.474 30C114.034 30 113.627 29.8933 113.254 29.68C112.894 29.4533 112.6 29.16 112.374 28.8C112.16 28.4267 112.054 28.02 112.054 27.58V14.6H113.694V27.58C113.694 27.7933 113.767 27.98 113.914 28.14C114.074 28.2867 114.26 28.36 114.474 28.36H116.434V30H114.474Z" fill="white"/>
<defs>
<filter id="filter0_d_3014_274684" x="0.130742" y="0" width="142.739" height="55.7385" filterUnits="userSpaceOnUse" color-interpolation-filters="sRGB">
<feFlood flood-opacity="0" result="BackgroundImageFix"/>
<feColorMatrix in="SourceAlpha" type="matrix" values="0 0 0 0 0 0 0 0 0 0 0 0 0 0 0 0 0 0 127 0" result="hardAlpha"/>
<feOffset dy="2.86926"/>
<feGaussianBlur stdDeviation="1.43463"/>
<feComposite in2="hardAlpha" operator="out"/>
<feColorMatrix type="matrix" values="0 0 0 0 0 0 0 0 0 0 0 0 0 0 0 0 0 0 0.25 0"/>
<feBlend mode="normal" in2="BackgroundImageFix" result="effect1_dropShadow_3014_274684"/>
<feBlend mode="normal" in="SourceGraphic" in2="effect1_dropShadow_3014_274684" result="shape"/>
</filter>
<linearGradient id="paint0_linear_3014_274684" x1="-21.3175" y1="23.1059" x2="148.572" y2="24.2791" gradientUnits="userSpaceOnUse">
<stop stop-color="#6400FF" stop-opacity="0.88"/>
<stop offset="0.523958" stop-color="#874691" stop-opacity="0.86"/>
<stop offset="1" stop-color="#FF03F5" stop-opacity="0.67"/>
</linearGradient>
<linearGradient id="paint1_linear_3014_274684" x1="3" y1="25" x2="143.54" y2="25" gradientUnits="userSpaceOnUse">
<stop stop-color="#131BB0"/>
<stop offset="0.482292" stop-color="#B84C93"/>
<stop offset="1" stop-color="#FF00F5"/>
<stop offset="1" stop-color="#DB34CA"/>
</linearGradient>
</defs>
</svg>
