<svg width="280" height="75" viewBox="0 0 280 75" fill="none" xmlns="http://www.w3.org/2000/svg">
<rect width="280" height="75" rx="24" fill="url(#paint0_linear_3237_287894)"/>
<path d="M38.0785 49L28.0705 31.72H31.7665L39.4945 45.16L47.2465 31.72H50.9185L40.9105 49H38.0785ZM52.7128 49V35.08H55.8568V49H52.7128ZM52.7128 33.688V30.52H55.8568V33.688H52.7128ZM61.4852 49C60.8772 49 60.3252 48.848 59.8292 48.544C59.3332 48.24 58.9332 47.84 58.6292 47.344C58.3252 46.848 58.1732 46.296 58.1732 45.688V38.392C58.1732 37.784 58.3252 37.232 58.6292 36.736C58.9332 36.24 59.3332 35.84 59.8292 35.536C60.3252 35.232 60.8772 35.08 61.4852 35.08H68.9972C69.6052 35.08 70.1572 35.232 70.6532 35.536C71.1652 35.84 71.5652 36.24 71.8532 36.736C72.1572 37.232 72.3092 37.784 72.3092 38.392V43.624H61.3172V45.568C61.3172 45.648 61.3412 45.72 61.3892 45.784C61.4532 45.832 61.5252 45.856 61.6052 45.856H72.3092V49H61.4852ZM61.3172 40.792H69.1652V38.512C69.1652 38.432 69.1332 38.368 69.0692 38.32C69.0212 38.256 68.9572 38.224 68.8772 38.224H61.6052C61.5252 38.224 61.4532 38.256 61.3892 38.32C61.3412 38.368 61.3172 38.432 61.3172 38.512V40.792ZM78.9643 49L73.4923 35.08H76.8283L80.2123 43.288L83.7643 35.08H87.0283L90.8203 43.336L93.9643 35.08H97.3003L92.0683 49H89.6203L85.4203 39.712L81.4123 49H78.9643ZM110.075 49C109.467 49 108.907 48.848 108.395 48.544C107.899 48.24 107.499 47.84 107.195 47.344C106.891 46.832 106.739 46.272 106.739 45.664V35.056C106.739 34.448 106.891 33.896 107.195 33.4C107.499 32.888 107.899 32.48 108.395 32.176C108.907 31.872 109.467 31.72 110.075 31.72H123.971V34.912H110.747C110.491 34.912 110.283 34.984 110.123 35.128C109.979 35.272 109.907 35.48 109.907 35.752V44.968C109.907 45.224 109.979 45.432 110.123 45.592C110.283 45.736 110.491 45.808 110.747 45.808H123.971V49H110.075ZM129.665 49C129.057 49 128.505 48.848 128.009 48.544C127.513 48.24 127.113 47.84 126.809 47.344C126.505 46.848 126.353 46.296 126.353 45.688V38.392C126.353 37.784 126.505 37.232 126.809 36.736C127.113 36.24 127.513 35.84 128.009 35.536C128.505 35.232 129.057 35.08 129.665 35.08H137.177C137.785 35.08 138.337 35.232 138.833 35.536C139.345 35.84 139.745 36.24 140.033 36.736C140.337 37.232 140.489 37.784 140.489 38.392V45.688C140.489 46.296 140.337 46.848 140.033 47.344C139.745 47.84 139.353 48.24 138.857 48.544C138.361 48.848 137.801 49 137.177 49H129.665ZM129.785 45.856H137.057C137.137 45.856 137.201 45.832 137.249 45.784C137.313 45.72 137.345 45.648 137.345 45.568V38.512C137.345 38.432 137.313 38.368 137.249 38.32C137.201 38.256 137.137 38.224 137.057 38.224H129.785C129.705 38.224 129.633 38.256 129.569 38.32C129.521 38.368 129.497 38.432 129.497 38.512V45.568C129.497 45.648 129.521 45.72 129.569 45.784C129.633 45.832 129.705 45.856 129.785 45.856ZM145.72 49C145.112 49 144.56 48.848 144.064 48.544C143.568 48.24 143.168 47.84 142.864 47.344C142.56 46.848 142.408 46.296 142.408 45.688V30.496H145.576V45.568C145.576 45.648 145.6 45.72 145.648 45.784C145.712 45.832 145.784 45.856 145.864 45.856H148.528V49H145.72ZM153.712 49C153.104 49 152.552 48.848 152.056 48.544C151.56 48.24 151.16 47.84 150.856 47.344C150.552 46.848 150.4 46.296 150.4 45.688V30.496H153.568V45.568C153.568 45.648 153.592 45.72 153.64 45.784C153.704 45.832 153.776 45.856 153.856 45.856H156.52V49H153.712ZM161.587 49C160.979 49 160.427 48.848 159.931 48.544C159.435 48.24 159.035 47.84 158.731 47.344C158.427 46.848 158.275 46.296 158.275 45.688V38.392C158.275 37.784 158.427 37.232 158.731 36.736C159.035 36.24 159.435 35.84 159.931 35.536C160.427 35.232 160.979 35.08 161.587 35.08H169.099C169.707 35.08 170.259 35.232 170.755 35.536C171.267 35.84 171.667 36.24 171.955 36.736C172.259 37.232 172.411 37.784 172.411 38.392V43.624H161.419V45.568C161.419 45.648 161.443 45.72 161.491 45.784C161.555 45.832 161.627 45.856 161.707 45.856H172.411V49H161.587ZM161.419 40.792H169.267V38.512C169.267 38.432 169.235 38.368 169.171 38.32C169.123 38.256 169.059 38.224 168.979 38.224H161.707C161.627 38.224 161.555 38.256 161.491 38.32C161.443 38.368 161.419 38.432 161.419 38.512V40.792ZM177.641 49C177.033 49 176.481 48.848 175.985 48.544C175.489 48.24 175.089 47.84 174.785 47.344C174.481 46.848 174.329 46.296 174.329 45.688V38.392C174.329 37.784 174.481 37.232 174.785 36.736C175.089 36.24 175.489 35.84 175.985 35.536C176.481 35.232 177.033 35.08 177.641 35.08H188.441V38.224H177.761C177.681 38.224 177.609 38.256 177.545 38.32C177.497 38.368 177.473 38.432 177.473 38.512V45.568C177.473 45.648 177.497 45.72 177.545 45.784C177.609 45.832 177.681 45.856 177.761 45.856H188.465V49H177.641ZM193.744 49C193.136 49 192.584 48.848 192.088 48.544C191.592 48.24 191.192 47.84 190.888 47.344C190.584 46.848 190.432 46.296 190.432 45.688V30.808H193.576V35.08H199V38.224H193.576V45.568C193.576 45.648 193.6 45.72 193.648 45.784C193.712 45.832 193.784 45.856 193.864 45.856H199V49H193.744ZM200.955 49V35.08H204.099V49H200.955ZM200.955 33.688V30.52H204.099V33.688H200.955ZM209.563 49C208.955 49 208.403 48.848 207.907 48.544C207.411 48.24 207.011 47.84 206.707 47.344C206.403 46.848 206.251 46.296 206.251 45.688V38.392C206.251 37.784 206.403 37.232 206.707 36.736C207.011 36.24 207.411 35.84 207.907 35.536C208.403 35.232 208.955 35.08 209.563 35.08H217.075C217.683 35.08 218.235 35.232 218.731 35.536C219.243 35.84 219.643 36.24 219.931 36.736C220.235 37.232 220.387 37.784 220.387 38.392V45.688C220.387 46.296 220.235 46.848 219.931 47.344C219.643 47.84 219.251 48.24 218.755 48.544C218.259 48.848 217.699 49 217.075 49H209.563ZM209.683 45.856H216.955C217.035 45.856 217.099 45.832 217.147 45.784C217.211 45.72 217.243 45.648 217.243 45.568V38.512C217.243 38.432 217.211 38.368 217.147 38.32C217.099 38.256 217.035 38.224 216.955 38.224H209.683C209.603 38.224 209.531 38.256 209.467 38.32C209.419 38.368 209.395 38.432 209.395 38.512V45.568C209.395 45.648 209.419 45.72 209.467 45.784C209.531 45.832 209.603 45.856 209.683 45.856ZM222.355 49V35.08H233.179C233.787 35.08 234.339 35.232 234.835 35.536C235.347 35.84 235.747 36.24 236.035 36.736C236.339 37.232 236.491 37.784 236.491 38.392V49H233.347V38.512C233.347 38.432 233.315 38.368 233.251 38.32C233.203 38.256 233.139 38.224 233.059 38.224H225.787C225.707 38.224 225.635 38.256 225.571 38.32C225.523 38.368 225.499 38.432 225.499 38.512V49H222.355Z" fill="white"/>
<defs>
<linearGradient id="paint0_linear_3237_287894" x1="-63.4667" y1="104.062" x2="311.503" y2="0.857934" gradientUnits="userSpaceOnUse">
<stop stop-color="#1D09BD"/>
<stop offset="1" stop-color="#EB01E3"/>
</linearGradient>
</defs>
</svg>
