<svg width="368" height="80" viewBox="0 0 368 80" fill="none" xmlns="http://www.w3.org/2000/svg">
<rect width="368" height="80" rx="8" fill="#FF0000" fill-opacity="0.15"/>
<path fill-rule="evenodd" clip-rule="evenodd" d="M39.9993 50.6667C45.8904 50.6667 50.666 45.8911 50.666 40.0001C50.666 34.109 45.8904 29.3334 39.9993 29.3334C34.1083 29.3334 29.3327 34.109 29.3327 40.0001C29.3327 45.8911 34.1083 50.6667 39.9993 50.6667ZM39.9993 53.3334C47.3631 53.3334 53.3327 47.3639 53.3327 40.0001C53.3327 32.6363 47.3631 26.6667 39.9993 26.6667C32.6356 26.6667 26.666 32.6363 26.666 40.0001C26.666 47.3639 32.6356 53.3334 39.9993 53.3334Z" fill="#FF0A12"/>
<path fill-rule="evenodd" clip-rule="evenodd" d="M39.9993 33.3333C39.263 33.3333 38.666 33.9302 38.666 34.6666C38.666 35.403 39.263 35.9999 39.9993 35.9999C40.7357 35.9999 41.3327 35.403 41.3327 34.6666C41.3327 33.9302 40.7357 33.3333 39.9993 33.3333ZM39.9993 38.6666C39.263 38.6666 38.666 39.2635 38.666 39.9999V45.3333C38.666 46.0696 39.263 46.6666 39.9993 46.6666C40.7357 46.6666 41.3327 46.0696 41.3327 45.3333V39.9999C41.3327 39.2635 40.7357 38.6666 39.9993 38.6666Z" fill="#FF0A12"/>
<path d="M68.5625 45H66.0391L66.0547 42.8906H68.5625C69.0833 42.8906 69.5234 42.7656 69.8828 42.5156C70.2474 42.2656 70.5234 41.8932 70.7109 41.3984C70.9036 40.8984 71 40.2839 71 39.5547V39.0625C71 38.5156 70.9453 38.0365 70.8359 37.625C70.7318 37.2083 70.5755 36.862 70.3672 36.5859C70.1589 36.3047 69.8984 36.0938 69.5859 35.9531C69.2786 35.8125 68.9245 35.7422 68.5234 35.7422H65.9922V33.625H68.5234C69.2943 33.625 70 33.7578 70.6406 34.0234C71.2865 34.2839 71.8438 34.6589 72.3125 35.1484C72.7865 35.6328 73.151 36.2083 73.4062 36.875C73.6667 37.5365 73.7969 38.2708 73.7969 39.0781V39.5547C73.7969 40.3568 73.6667 41.0911 73.4062 41.7578C73.151 42.4245 72.7891 43 72.3203 43.4844C71.8516 43.9688 71.2969 44.3438 70.6562 44.6094C70.0208 44.8698 69.3229 45 68.5625 45ZM67.6094 33.625V45H64.8672V33.625H67.6094ZM84.8516 39.0859V39.5469C84.8516 40.4167 84.7292 41.1979 84.4844 41.8906C84.2448 42.5781 83.9036 43.1667 83.4609 43.6562C83.0182 44.1406 82.4948 44.513 81.8906 44.7734C81.2865 45.0286 80.6198 45.1562 79.8906 45.1562C79.1562 45.1562 78.4844 45.0286 77.875 44.7734C77.2708 44.513 76.7448 44.1406 76.2969 43.6562C75.8542 43.1667 75.5104 42.5781 75.2656 41.8906C75.026 41.1979 74.9062 40.4167 74.9062 39.5469V39.0859C74.9062 38.2161 75.026 37.4349 75.2656 36.7422C75.5104 36.0495 75.8516 35.4609 76.2891 34.9766C76.7318 34.487 77.2552 34.1146 77.8594 33.8594C78.4688 33.599 79.1406 33.4688 79.875 33.4688C80.6042 33.4688 81.2708 33.599 81.875 33.8594C82.4844 34.1146 83.0104 34.487 83.4531 34.9766C83.8958 35.4609 84.2396 36.0495 84.4844 36.7422C84.7292 37.4349 84.8516 38.2161 84.8516 39.0859ZM82.0703 39.5469V39.0703C82.0703 38.5078 82.0208 38.013 81.9219 37.5859C81.8281 37.1536 81.6875 36.7917 81.5 36.5C81.3125 36.2083 81.0807 35.9896 80.8047 35.8438C80.5339 35.6927 80.224 35.6172 79.875 35.6172C79.5104 35.6172 79.1927 35.6927 78.9219 35.8438C78.651 35.9896 78.4245 36.2083 78.2422 36.5C78.0599 36.7917 77.9219 37.1536 77.8281 37.5859C77.7396 38.013 77.6953 38.5078 77.6953 39.0703V39.5469C77.6953 40.1042 77.7396 40.599 77.8281 41.0312C77.9219 41.4583 78.0599 41.8203 78.2422 42.1172C78.4297 42.4141 78.6589 42.638 78.9297 42.7891C79.2057 42.9401 79.526 43.0156 79.8906 43.0156C80.2396 43.0156 80.5495 42.9401 80.8203 42.7891C81.0911 42.638 81.3177 42.4141 81.5 42.1172C81.6875 41.8203 81.8281 41.4583 81.9219 41.0312C82.0208 40.599 82.0703 40.1042 82.0703 39.5469ZM99.7578 33.625V45H97.0234L93 37.9219V45H90.2578V33.625H93L97.0234 40.7031V33.625H99.7578ZM111.117 39.0859V39.5469C111.117 40.4167 110.995 41.1979 110.75 41.8906C110.51 42.5781 110.169 43.1667 109.727 43.6562C109.284 44.1406 108.76 44.513 108.156 44.7734C107.552 45.0286 106.885 45.1562 106.156 45.1562C105.422 45.1562 104.75 45.0286 104.141 44.7734C103.536 44.513 103.01 44.1406 102.562 43.6562C102.12 43.1667 101.776 42.5781 101.531 41.8906C101.292 41.1979 101.172 40.4167 101.172 39.5469V39.0859C101.172 38.2161 101.292 37.4349 101.531 36.7422C101.776 36.0495 102.117 35.4609 102.555 34.9766C102.997 34.487 103.521 34.1146 104.125 33.8594C104.734 33.599 105.406 33.4688 106.141 33.4688C106.87 33.4688 107.536 33.599 108.141 33.8594C108.75 34.1146 109.276 34.487 109.719 34.9766C110.161 35.4609 110.505 36.0495 110.75 36.7422C110.995 37.4349 111.117 38.2161 111.117 39.0859ZM108.336 39.5469V39.0703C108.336 38.5078 108.286 38.013 108.188 37.5859C108.094 37.1536 107.953 36.7917 107.766 36.5C107.578 36.2083 107.346 35.9896 107.07 35.8438C106.799 35.6927 106.49 35.6172 106.141 35.6172C105.776 35.6172 105.458 35.6927 105.188 35.8438C104.917 35.9896 104.69 36.2083 104.508 36.5C104.326 36.7917 104.188 37.1536 104.094 37.5859C104.005 38.013 103.961 38.5078 103.961 39.0703V39.5469C103.961 40.1042 104.005 40.599 104.094 41.0312C104.188 41.4583 104.326 41.8203 104.508 42.1172C104.695 42.4141 104.924 42.638 105.195 42.7891C105.471 42.9401 105.792 43.0156 106.156 43.0156C106.505 43.0156 106.815 42.9401 107.086 42.7891C107.357 42.638 107.583 42.4141 107.766 42.1172C107.953 41.8203 108.094 41.4583 108.188 41.0312C108.286 40.599 108.336 40.1042 108.336 39.5469ZM117.375 33.625V45H114.633V33.625H117.375ZM120.797 33.625V35.7422H111.289V33.625H120.797ZM132.992 42.8906V45H127.242V42.8906H132.992ZM128.219 33.625V45H125.477V33.625H128.219ZM143.273 39.0859V39.5469C143.273 40.4167 143.151 41.1979 142.906 41.8906C142.667 42.5781 142.326 43.1667 141.883 43.6562C141.44 44.1406 140.917 44.513 140.312 44.7734C139.708 45.0286 139.042 45.1562 138.312 45.1562C137.578 45.1562 136.906 45.0286 136.297 44.7734C135.693 44.513 135.167 44.1406 134.719 43.6562C134.276 43.1667 133.932 42.5781 133.688 41.8906C133.448 41.1979 133.328 40.4167 133.328 39.5469V39.0859C133.328 38.2161 133.448 37.4349 133.688 36.7422C133.932 36.0495 134.273 35.4609 134.711 34.9766C135.154 34.487 135.677 34.1146 136.281 33.8594C136.891 33.599 137.562 33.4688 138.297 33.4688C139.026 33.4688 139.693 33.599 140.297 33.8594C140.906 34.1146 141.432 34.487 141.875 34.9766C142.318 35.4609 142.661 36.0495 142.906 36.7422C143.151 37.4349 143.273 38.2161 143.273 39.0859ZM140.492 39.5469V39.0703C140.492 38.5078 140.443 38.013 140.344 37.5859C140.25 37.1536 140.109 36.7917 139.922 36.5C139.734 36.2083 139.503 35.9896 139.227 35.8438C138.956 35.6927 138.646 35.6172 138.297 35.6172C137.932 35.6172 137.615 35.6927 137.344 35.8438C137.073 35.9896 136.846 36.2083 136.664 36.5C136.482 36.7917 136.344 37.1536 136.25 37.5859C136.161 38.013 136.117 38.5078 136.117 39.0703V39.5469C136.117 40.1042 136.161 40.599 136.25 41.0312C136.344 41.4583 136.482 41.8203 136.664 42.1172C136.852 42.4141 137.081 42.638 137.352 42.7891C137.628 42.9401 137.948 43.0156 138.312 43.0156C138.661 43.0156 138.971 42.9401 139.242 42.7891C139.513 42.638 139.74 42.4141 139.922 42.1172C140.109 41.8203 140.25 41.4583 140.344 41.0312C140.443 40.599 140.492 40.1042 140.492 39.5469ZM150.555 41.9766C150.555 41.7995 150.529 41.6406 150.477 41.5C150.424 41.3542 150.328 41.2188 150.188 41.0938C150.047 40.9688 149.844 40.8438 149.578 40.7188C149.318 40.5885 148.974 40.4531 148.547 40.3125C148.047 40.1458 147.565 39.9583 147.102 39.75C146.638 39.5365 146.224 39.2891 145.859 39.0078C145.495 38.7214 145.206 38.388 144.992 38.0078C144.779 37.6224 144.672 37.1745 144.672 36.6641C144.672 36.1745 144.781 35.7344 145 35.3438C145.219 34.9479 145.523 34.612 145.914 34.3359C146.31 34.0547 146.773 33.8411 147.305 33.6953C147.836 33.5443 148.417 33.4688 149.047 33.4688C149.88 33.4688 150.615 33.6146 151.25 33.9062C151.891 34.1927 152.391 34.6016 152.75 35.1328C153.115 35.6589 153.297 36.2812 153.297 37H150.57C150.57 36.7135 150.51 36.4609 150.391 36.2422C150.276 36.0234 150.102 35.8516 149.867 35.7266C149.633 35.6016 149.339 35.5391 148.984 35.5391C148.641 35.5391 148.352 35.5911 148.117 35.6953C147.883 35.7995 147.706 35.9401 147.586 36.1172C147.466 36.2891 147.406 36.4792 147.406 36.6875C147.406 36.8594 147.453 37.0156 147.547 37.1562C147.646 37.2917 147.784 37.4193 147.961 37.5391C148.143 37.6589 148.362 37.7734 148.617 37.8828C148.878 37.9922 149.169 38.099 149.492 38.2031C150.096 38.3958 150.633 38.612 151.102 38.8516C151.576 39.0859 151.974 39.3542 152.297 39.6562C152.625 39.9531 152.872 40.2917 153.039 40.6719C153.211 41.0521 153.297 41.4818 153.297 41.9609C153.297 42.4714 153.198 42.9245 153 43.3203C152.802 43.7161 152.518 44.0521 152.148 44.3281C151.779 44.599 151.336 44.8047 150.82 44.9453C150.305 45.0859 149.729 45.1562 149.094 45.1562C148.51 45.1562 147.935 45.0833 147.367 44.9375C146.805 44.7865 146.294 44.5573 145.836 44.25C145.378 43.9375 145.01 43.5391 144.734 43.0547C144.464 42.5651 144.328 41.9844 144.328 41.3125H147.078C147.078 41.6458 147.122 41.9271 147.211 42.1562C147.299 42.3854 147.43 42.5703 147.602 42.7109C147.773 42.8464 147.984 42.9453 148.234 43.0078C148.484 43.0651 148.771 43.0938 149.094 43.0938C149.443 43.0938 149.724 43.0443 149.938 42.9453C150.151 42.8411 150.307 42.7057 150.406 42.5391C150.505 42.3672 150.555 42.1797 150.555 41.9766ZM162.539 42.8906V45H156.477V42.8906H162.539ZM157.453 33.625V45H154.711V33.625H157.453ZM161.758 38.1406V40.1797H156.477V38.1406H161.758ZM162.562 33.625V35.7422H156.477V33.625H162.562ZM172.688 33.625V45H169.945V33.625H172.688ZM176.109 33.625V35.7422H166.602V33.625H176.109ZM184.938 38.1406V40.25H179.102V38.1406H184.938ZM180.016 33.625V45H177.273V33.625H180.016ZM186.781 33.625V45H184.047V33.625H186.781ZM191.438 33.625V45H188.703V33.625H191.438ZM199.227 41.9766C199.227 41.7995 199.201 41.6406 199.148 41.5C199.096 41.3542 199 41.2188 198.859 41.0938C198.719 40.9688 198.516 40.8438 198.25 40.7188C197.99 40.5885 197.646 40.4531 197.219 40.3125C196.719 40.1458 196.237 39.9583 195.773 39.75C195.31 39.5365 194.896 39.2891 194.531 39.0078C194.167 38.7214 193.878 38.388 193.664 38.0078C193.451 37.6224 193.344 37.1745 193.344 36.6641C193.344 36.1745 193.453 35.7344 193.672 35.3438C193.891 34.9479 194.195 34.612 194.586 34.3359C194.982 34.0547 195.445 33.8411 195.977 33.6953C196.508 33.5443 197.089 33.4688 197.719 33.4688C198.552 33.4688 199.286 33.6146 199.922 33.9062C200.562 34.1927 201.062 34.6016 201.422 35.1328C201.786 35.6589 201.969 36.2812 201.969 37H199.242C199.242 36.7135 199.182 36.4609 199.062 36.2422C198.948 36.0234 198.773 35.8516 198.539 35.7266C198.305 35.6016 198.01 35.5391 197.656 35.5391C197.312 35.5391 197.023 35.5911 196.789 35.6953C196.555 35.7995 196.378 35.9401 196.258 36.1172C196.138 36.2891 196.078 36.4792 196.078 36.6875C196.078 36.8594 196.125 37.0156 196.219 37.1562C196.318 37.2917 196.456 37.4193 196.633 37.5391C196.815 37.6589 197.034 37.7734 197.289 37.8828C197.549 37.9922 197.841 38.099 198.164 38.2031C198.768 38.3958 199.305 38.612 199.773 38.8516C200.247 39.0859 200.646 39.3542 200.969 39.6562C201.297 39.9531 201.544 40.2917 201.711 40.6719C201.883 41.0521 201.969 41.4818 201.969 41.9609C201.969 42.4714 201.87 42.9245 201.672 43.3203C201.474 43.7161 201.19 44.0521 200.82 44.3281C200.451 44.599 200.008 44.8047 199.492 44.9453C198.977 45.0859 198.401 45.1562 197.766 45.1562C197.182 45.1562 196.607 45.0833 196.039 44.9375C195.477 44.7865 194.966 44.5573 194.508 44.25C194.049 43.9375 193.682 43.5391 193.406 43.0547C193.135 42.5651 193 41.9844 193 41.3125H195.75C195.75 41.6458 195.794 41.9271 195.883 42.1562C195.971 42.3854 196.102 42.5703 196.273 42.7109C196.445 42.8464 196.656 42.9453 196.906 43.0078C197.156 43.0651 197.443 43.0938 197.766 43.0938C198.115 43.0938 198.396 43.0443 198.609 42.9453C198.823 42.8411 198.979 42.7057 199.078 42.5391C199.177 42.3672 199.227 42.1797 199.227 41.9766ZM210.109 33.625V45H207.367V33.625H210.109ZM216.898 33.625L212.492 39.3906L209.914 42.2109L209.414 39.6953L211.062 37.1953L213.516 33.625H216.898ZM213.656 45L210.719 39.875L212.852 38.3047L216.898 45H213.656ZM225.43 42.8906V45H219.367V42.8906H225.43ZM220.344 33.625V45H217.602V33.625H220.344ZM224.648 38.1406V40.1797H219.367V38.1406H224.648ZM225.453 33.625V35.7422H219.367V33.625H225.453ZM228.617 33.625L230.711 38.5625L232.812 33.625H235.766L232.109 40.9141V45H229.32V40.9141L225.656 33.625H228.617Z" fill="#FF0A12"/>
</svg>
