<svg width="368" height="80" viewBox="0 0 368 80" fill="none" xmlns="http://www.w3.org/2000/svg">
<rect width="368" height="80" rx="8" fill="#FF0000" fill-opacity="0.15"/>
<path fill-rule="evenodd" clip-rule="evenodd" d="M39.9998 50.6667C45.8909 50.6667 50.6665 45.8911 50.6665 40.0001C50.6665 34.109 45.8909 29.3334 39.9998 29.3334C34.1088 29.3334 29.3332 34.109 29.3332 40.0001C29.3332 45.8911 34.1088 50.6667 39.9998 50.6667ZM39.9998 53.3334C47.3636 53.3334 53.3332 47.3639 53.3332 40.0001C53.3332 32.6363 47.3636 26.6667 39.9998 26.6667C32.636 26.6667 26.6665 32.6363 26.6665 40.0001C26.6665 47.3639 32.636 53.3334 39.9998 53.3334Z" fill="#FF0A12"/>
<path fill-rule="evenodd" clip-rule="evenodd" d="M39.9998 33.3333C39.2635 33.3333 38.6665 33.9302 38.6665 34.6666C38.6665 35.403 39.2635 35.9999 39.9998 35.9999C40.7362 35.9999 41.3332 35.403 41.3332 34.6666C41.3332 33.9302 40.7362 33.3333 39.9998 33.3333ZM39.9998 38.6666C39.2635 38.6666 38.6665 39.2635 38.6665 39.9999V45.3333C38.6665 46.0696 39.2635 46.6666 39.9998 46.6666C40.7362 46.6666 41.3332 46.0696 41.3332 45.3333V39.9999C41.3332 39.2635 40.7362 38.6666 39.9998 38.6666Z" fill="#FF0A12"/>
<path d="M69.4062 41.1406H66.5781V39.0234H69.4062C69.7917 39.0234 70.1042 38.9583 70.3438 38.8281C70.5833 38.6979 70.7578 38.5182 70.8672 38.2891C70.9818 38.0547 71.0391 37.7917 71.0391 37.5C71.0391 37.1875 70.9818 36.8984 70.8672 36.6328C70.7578 36.3672 70.5833 36.1536 70.3438 35.9922C70.1042 35.8255 69.7917 35.7422 69.4062 35.7422H67.6094V45H64.8672V33.625H69.4062C70.3177 33.625 71.1016 33.7917 71.7578 34.125C72.4193 34.4583 72.9271 34.9167 73.2812 35.5C73.6354 36.0781 73.8125 36.7396 73.8125 37.4844C73.8125 38.2188 73.6354 38.8594 73.2812 39.4062C72.9271 39.9531 72.4193 40.3802 71.7578 40.6875C71.1016 40.9896 70.3177 41.1406 69.4062 41.1406ZM82.8047 42.8906V45H77.0547V42.8906H82.8047ZM78.0312 33.625V45H75.2891V33.625H78.0312ZM91.7891 42.8906V45H85.7266V42.8906H91.7891ZM86.7031 33.625V45H83.9609V33.625H86.7031ZM91.0078 38.1406V40.1797H85.7266V38.1406H91.0078ZM91.8125 33.625V35.7422H85.7266V33.625H91.8125ZM97.7344 36.0156L94.9609 45H92.0156L96.1953 33.625H98.0625L97.7344 36.0156ZM100.031 45L97.25 36.0156L96.8906 33.625H98.7812L102.984 45H100.031ZM99.9219 40.7578V42.875H94.0859V40.7578H99.9219ZM109.68 41.9766C109.68 41.7995 109.654 41.6406 109.602 41.5C109.549 41.3542 109.453 41.2188 109.312 41.0938C109.172 40.9688 108.969 40.8438 108.703 40.7188C108.443 40.5885 108.099 40.4531 107.672 40.3125C107.172 40.1458 106.69 39.9583 106.227 39.75C105.763 39.5365 105.349 39.2891 104.984 39.0078C104.62 38.7214 104.331 38.388 104.117 38.0078C103.904 37.6224 103.797 37.1745 103.797 36.6641C103.797 36.1745 103.906 35.7344 104.125 35.3438C104.344 34.9479 104.648 34.612 105.039 34.3359C105.435 34.0547 105.898 33.8411 106.43 33.6953C106.961 33.5443 107.542 33.4688 108.172 33.4688C109.005 33.4688 109.74 33.6146 110.375 33.9062C111.016 34.1927 111.516 34.6016 111.875 35.1328C112.24 35.6589 112.422 36.2812 112.422 37H109.695C109.695 36.7135 109.635 36.4609 109.516 36.2422C109.401 36.0234 109.227 35.8516 108.992 35.7266C108.758 35.6016 108.464 35.5391 108.109 35.5391C107.766 35.5391 107.477 35.5911 107.242 35.6953C107.008 35.7995 106.831 35.9401 106.711 36.1172C106.591 36.2891 106.531 36.4792 106.531 36.6875C106.531 36.8594 106.578 37.0156 106.672 37.1562C106.771 37.2917 106.909 37.4193 107.086 37.5391C107.268 37.6589 107.487 37.7734 107.742 37.8828C108.003 37.9922 108.294 38.099 108.617 38.2031C109.221 38.3958 109.758 38.612 110.227 38.8516C110.701 39.0859 111.099 39.3542 111.422 39.6562C111.75 39.9531 111.997 40.2917 112.164 40.6719C112.336 41.0521 112.422 41.4818 112.422 41.9609C112.422 42.4714 112.323 42.9245 112.125 43.3203C111.927 43.7161 111.643 44.0521 111.273 44.3281C110.904 44.599 110.461 44.8047 109.945 44.9453C109.43 45.0859 108.854 45.1562 108.219 45.1562C107.635 45.1562 107.06 45.0833 106.492 44.9375C105.93 44.7865 105.419 44.5573 104.961 44.25C104.503 43.9375 104.135 43.5391 103.859 43.0547C103.589 42.5651 103.453 41.9844 103.453 41.3125H106.203C106.203 41.6458 106.247 41.9271 106.336 42.1562C106.424 42.3854 106.555 42.5703 106.727 42.7109C106.898 42.8464 107.109 42.9453 107.359 43.0078C107.609 43.0651 107.896 43.0938 108.219 43.0938C108.568 43.0938 108.849 43.0443 109.062 42.9453C109.276 42.8411 109.432 42.7057 109.531 42.5391C109.63 42.3672 109.68 42.1797 109.68 41.9766ZM121.664 42.8906V45H115.602V42.8906H121.664ZM116.578 33.625V45H113.836V33.625H116.578ZM120.883 38.1406V40.1797H115.602V38.1406H120.883ZM121.688 33.625V35.7422H115.602V33.625H121.688ZM133.242 41.1484H135.977C135.94 41.9401 135.727 42.638 135.336 43.2422C134.945 43.8464 134.404 44.3177 133.711 44.6562C133.023 44.9896 132.211 45.1562 131.273 45.1562C130.513 45.1562 129.833 45.0286 129.234 44.7734C128.641 44.5182 128.135 44.151 127.719 43.6719C127.307 43.1927 126.992 42.612 126.773 41.9297C126.56 41.2474 126.453 40.4792 126.453 39.625V39.0078C126.453 38.1536 126.565 37.3854 126.789 36.7031C127.018 36.0156 127.341 35.4323 127.758 34.9531C128.18 34.4688 128.685 34.099 129.273 33.8438C129.862 33.5885 130.516 33.4609 131.234 33.4609C132.224 33.4609 133.06 33.638 133.742 33.9922C134.424 34.3464 134.953 34.8333 135.328 35.4531C135.703 36.0677 135.924 36.7682 135.992 37.5547H133.258C133.247 37.1276 133.174 36.7708 133.039 36.4844C132.904 36.1927 132.69 35.974 132.398 35.8281C132.107 35.6823 131.719 35.6094 131.234 35.6094C130.896 35.6094 130.602 35.6719 130.352 35.7969C130.102 35.9219 129.893 36.1198 129.727 36.3906C129.56 36.6615 129.435 37.013 129.352 37.4453C129.273 37.8724 129.234 38.388 129.234 38.9922V39.625C129.234 40.2292 129.271 40.7448 129.344 41.1719C129.417 41.599 129.534 41.9479 129.695 42.2188C129.857 42.4896 130.065 42.6901 130.32 42.8203C130.581 42.9453 130.898 43.0078 131.273 43.0078C131.69 43.0078 132.042 42.9427 132.328 42.8125C132.615 42.6771 132.836 42.474 132.992 42.2031C133.148 41.9271 133.232 41.5755 133.242 41.1484ZM137.273 33.625H141.75C142.625 33.625 143.385 33.7552 144.031 34.0156C144.677 34.276 145.174 34.6615 145.523 35.1719C145.878 35.6823 146.055 36.3125 146.055 37.0625C146.055 37.7135 145.953 38.2578 145.75 38.6953C145.547 39.1328 145.263 39.4948 144.898 39.7812C144.539 40.0625 144.12 40.2943 143.641 40.4766L142.742 40.9844H138.984L138.969 38.8672H141.75C142.099 38.8672 142.388 38.8047 142.617 38.6797C142.846 38.5547 143.018 38.3776 143.133 38.1484C143.253 37.9141 143.312 37.6354 143.312 37.3125C143.312 36.9844 143.253 36.7031 143.133 36.4688C143.013 36.2344 142.836 36.0547 142.602 35.9297C142.372 35.8047 142.089 35.7422 141.75 35.7422H140.016V45H137.273V33.625ZM143.5 45L140.984 39.9688L143.891 39.9531L146.438 44.8828V45H143.5ZM155.539 42.8906V45H149.477V42.8906H155.539ZM150.453 33.625V45H147.711V33.625H150.453ZM154.758 38.1406V40.1797H149.477V38.1406H154.758ZM155.562 33.625V35.7422H149.477V33.625H155.562ZM161.484 36.0156L158.711 45H155.766L159.945 33.625H161.812L161.484 36.0156ZM163.781 45L161 36.0156L160.641 33.625H162.531L166.734 45H163.781ZM163.672 40.7578V42.875H157.836V40.7578H163.672ZM172.141 33.625V45H169.398V33.625H172.141ZM175.562 33.625V35.7422H166.055V33.625H175.562ZM184.555 42.8906V45H178.492V42.8906H184.555ZM179.469 33.625V45H176.727V33.625H179.469ZM183.773 38.1406V40.1797H178.492V38.1406H183.773ZM184.578 33.625V35.7422H178.492V33.625H184.578ZM194.484 36.0156L191.711 45H188.766L192.945 33.625H194.812L194.484 36.0156ZM196.781 45L194 36.0156L193.641 33.625H195.531L199.734 45H196.781ZM196.672 40.7578V42.875H190.836V40.7578H196.672ZM210.07 33.625V45H207.336L203.312 37.9219V45H200.57V33.625H203.312L207.336 40.7031V33.625H210.07ZM223.523 41.8672C223.523 42.5911 223.352 43.1979 223.008 43.6875C222.669 44.1771 222.201 44.5443 221.602 44.7891C221.008 45.0339 220.331 45.1562 219.57 45.1562C218.815 45.1562 218.135 45.0339 217.531 44.7891C216.932 44.5443 216.458 44.1771 216.109 43.6875C215.76 43.1979 215.586 42.5911 215.586 41.8672C215.586 41.3724 215.685 40.9297 215.883 40.5391C216.086 40.1432 216.367 39.8073 216.727 39.5312C217.086 39.2552 217.505 39.0443 217.984 38.8984C218.469 38.7526 218.992 38.6797 219.555 38.6797C220.315 38.6797 220.995 38.8099 221.594 39.0703C222.193 39.3255 222.664 39.6901 223.008 40.1641C223.352 40.638 223.523 41.2057 223.523 41.8672ZM220.875 41.6562C220.875 41.3438 220.82 41.0807 220.711 40.8672C220.602 40.6484 220.448 40.4818 220.25 40.3672C220.052 40.2526 219.82 40.1953 219.555 40.1953C219.294 40.1953 219.062 40.2526 218.859 40.3672C218.661 40.4818 218.505 40.6484 218.391 40.8672C218.281 41.0807 218.227 41.3438 218.227 41.6562C218.227 41.9583 218.284 42.2214 218.398 42.4453C218.513 42.6641 218.669 42.8333 218.867 42.9531C219.07 43.0677 219.305 43.125 219.57 43.125C219.836 43.125 220.065 43.0677 220.258 42.9531C220.456 42.8333 220.607 42.6641 220.711 42.4453C220.82 42.2214 220.875 41.9583 220.875 41.6562ZM223.289 36.6641C223.289 37.2578 223.13 37.7786 222.812 38.2266C222.5 38.6693 222.062 39.0156 221.5 39.2656C220.943 39.5104 220.299 39.6328 219.57 39.6328C218.846 39.6328 218.201 39.5104 217.633 39.2656C217.07 39.0156 216.628 38.6693 216.305 38.2266C215.987 37.7786 215.828 37.2578 215.828 36.6641C215.828 35.9661 215.987 35.3802 216.305 34.9062C216.628 34.4323 217.07 34.0729 217.633 33.8281C218.195 33.5833 218.836 33.4609 219.555 33.4609C220.284 33.4609 220.93 33.5833 221.492 33.8281C222.055 34.0729 222.495 34.4323 222.812 34.9062C223.13 35.3802 223.289 35.9661 223.289 36.6641ZM220.656 36.8047C220.656 36.5339 220.615 36.3021 220.531 36.1094C220.448 35.9115 220.326 35.7604 220.164 35.6562C220.003 35.5469 219.799 35.4922 219.555 35.4922C219.32 35.4922 219.122 35.5443 218.961 35.6484C218.799 35.7526 218.677 35.9036 218.594 36.1016C218.51 36.2943 218.469 36.5286 218.469 36.8047C218.469 37.0755 218.51 37.3125 218.594 37.5156C218.677 37.7188 218.799 37.8776 218.961 37.9922C219.128 38.1068 219.331 38.1641 219.57 38.1641C219.815 38.1641 220.016 38.1068 220.172 37.9922C220.333 37.8776 220.453 37.7188 220.531 37.5156C220.615 37.3125 220.656 37.0755 220.656 36.8047ZM229.711 40.1641H226.781L226.766 38.3672H229.141C229.568 38.3672 229.909 38.3203 230.164 38.2266C230.419 38.1276 230.604 37.9844 230.719 37.7969C230.839 37.6094 230.898 37.375 230.898 37.0938C230.898 36.7708 230.839 36.5104 230.719 36.3125C230.599 36.1146 230.409 35.9714 230.148 35.8828C229.893 35.7891 229.562 35.7422 229.156 35.7422H227.812V45H225.07V33.625H229.156C229.859 33.625 230.487 33.6901 231.039 33.8203C231.591 33.9453 232.06 34.138 232.445 34.3984C232.836 34.6589 233.133 34.987 233.336 35.3828C233.539 35.7734 233.641 36.2344 233.641 36.7656C233.641 37.2292 233.542 37.6641 233.344 38.0703C233.146 38.4766 232.815 38.8073 232.352 39.0625C231.893 39.3125 231.266 39.4427 230.469 39.4531L229.711 40.1641ZM229.602 45H226.117L227.055 42.8906H229.602C229.977 42.8906 230.276 42.8333 230.5 42.7188C230.729 42.599 230.893 42.4427 230.992 42.25C231.096 42.0521 231.148 41.8333 231.148 41.5938C231.148 41.3021 231.099 41.0495 231 40.8359C230.906 40.6224 230.755 40.4583 230.547 40.3438C230.339 40.224 230.06 40.1641 229.711 40.1641H227.406L227.422 38.3672H230.18L230.82 39.0859C231.581 39.0547 232.182 39.1615 232.625 39.4062C233.073 39.651 233.393 39.974 233.586 40.375C233.779 40.776 233.875 41.1953 233.875 41.6328C233.875 42.3776 233.714 43 233.391 43.5C233.073 44 232.596 44.375 231.961 44.625C231.326 44.875 230.539 45 229.602 45ZM240.219 36.0156L237.445 45H234.5L238.68 33.625H240.547L240.219 36.0156ZM242.516 45L239.734 36.0156L239.375 33.625H241.266L245.469 45H242.516ZM242.406 40.7578V42.875H236.57V40.7578H242.406ZM253.82 42.8906V45H248.07V42.8906H253.82ZM249.047 33.625V45H246.305V33.625H249.047ZM262.492 42.8906V45H256.742V42.8906H262.492ZM257.719 33.625V45H254.977V33.625H257.719ZM270.547 33.625V45H267.812V33.625H270.547ZM276.172 45H273.648L273.664 42.8906H276.172C276.693 42.8906 277.133 42.7656 277.492 42.5156C277.857 42.2656 278.133 41.8932 278.32 41.3984C278.513 40.8984 278.609 40.2839 278.609 39.5547V39.0625C278.609 38.5156 278.555 38.0365 278.445 37.625C278.341 37.2083 278.185 36.862 277.977 36.5859C277.768 36.3047 277.508 36.0938 277.195 35.9531C276.888 35.8125 276.534 35.7422 276.133 35.7422H273.602V33.625H276.133C276.904 33.625 277.609 33.7578 278.25 34.0234C278.896 34.2839 279.453 34.6589 279.922 35.1484C280.396 35.6328 280.76 36.2083 281.016 36.875C281.276 37.5365 281.406 38.2708 281.406 39.0781V39.5547C281.406 40.3568 281.276 41.0911 281.016 41.7578C280.76 42.4245 280.398 43 279.93 43.4844C279.461 43.9688 278.906 44.3438 278.266 44.6094C277.63 44.8698 276.932 45 276.172 45ZM275.219 33.625V45H272.477V33.625H275.219ZM291.859 33.625V45H289.117V33.625H291.859ZM295.281 33.625V35.7422H285.773V33.625H295.281ZM305.852 39.0859V39.5469C305.852 40.4167 305.729 41.1979 305.484 41.8906C305.245 42.5781 304.904 43.1667 304.461 43.6562C304.018 44.1406 303.495 44.513 302.891 44.7734C302.286 45.0286 301.62 45.1562 300.891 45.1562C300.156 45.1562 299.484 45.0286 298.875 44.7734C298.271 44.513 297.745 44.1406 297.297 43.6562C296.854 43.1667 296.51 42.5781 296.266 41.8906C296.026 41.1979 295.906 40.4167 295.906 39.5469V39.0859C295.906 38.2161 296.026 37.4349 296.266 36.7422C296.51 36.0495 296.852 35.4609 297.289 34.9766C297.732 34.487 298.255 34.1146 298.859 33.8594C299.469 33.599 300.141 33.4688 300.875 33.4688C301.604 33.4688 302.271 33.599 302.875 33.8594C303.484 34.1146 304.01 34.487 304.453 34.9766C304.896 35.4609 305.24 36.0495 305.484 36.7422C305.729 37.4349 305.852 38.2161 305.852 39.0859ZM303.07 39.5469V39.0703C303.07 38.5078 303.021 38.013 302.922 37.5859C302.828 37.1536 302.688 36.7917 302.5 36.5C302.312 36.2083 302.081 35.9896 301.805 35.8438C301.534 35.6927 301.224 35.6172 300.875 35.6172C300.51 35.6172 300.193 35.6927 299.922 35.8438C299.651 35.9896 299.424 36.2083 299.242 36.5C299.06 36.7917 298.922 37.1536 298.828 37.5859C298.74 38.013 298.695 38.5078 298.695 39.0703V39.5469C298.695 40.1042 298.74 40.599 298.828 41.0312C298.922 41.4583 299.06 41.8203 299.242 42.1172C299.43 42.4141 299.659 42.638 299.93 42.7891C300.206 42.9401 300.526 43.0156 300.891 43.0156C301.24 43.0156 301.549 42.9401 301.82 42.7891C302.091 42.638 302.318 42.4141 302.5 42.1172C302.688 41.8203 302.828 41.4583 302.922 41.0312C303.021 40.599 303.07 40.1042 303.07 39.5469ZM315.797 41.1406H312.969V39.0234H315.797C316.182 39.0234 316.495 38.9583 316.734 38.8281C316.974 38.6979 317.148 38.5182 317.258 38.2891C317.372 38.0547 317.43 37.7917 317.43 37.5C317.43 37.1875 317.372 36.8984 317.258 36.6328C317.148 36.3672 316.974 36.1536 316.734 35.9922C316.495 35.8255 316.182 35.7422 315.797 35.7422H314V45H311.258V33.625H315.797C316.708 33.625 317.492 33.7917 318.148 34.125C318.81 34.4583 319.318 34.9167 319.672 35.5C320.026 36.0781 320.203 36.7396 320.203 37.4844C320.203 38.2188 320.026 38.8594 319.672 39.4062C319.318 39.9531 318.81 40.3802 318.148 40.6875C317.492 40.9896 316.708 41.1406 315.797 41.1406ZM329.195 42.8906V45H323.445V42.8906H329.195ZM324.422 33.625V45H321.68V33.625H324.422ZM335.328 36.0156L332.555 45H329.609L333.789 33.625H335.656L335.328 36.0156ZM337.625 45L334.844 36.0156L334.484 33.625H336.375L340.578 45H337.625ZM337.516 40.7578V42.875H331.68V40.7578H337.516ZM342.305 33.625L344.398 38.5625L346.5 33.625H349.453L345.797 40.9141V45H343.008V40.9141L339.344 33.625H342.305Z" fill="#FF0A12"/>
</svg>
