<svg width="115" height="32" viewBox="0 0 115 32" fill="none" xmlns="http://www.w3.org/2000/svg">
<g clip-path="url(#clip0_2738_223124)">
<g clip-path="url(#clip1_2738_223124)">
<g clip-path="url(#clip2_2738_223124)">
<g filter="url(#filter0_d_2738_223124)">
<path d="M94.6154 6.00006C92.8237 5.9938 91.0664 6.51139 89.5439 7.49376C88.0215 8.47614 86.7951 9.88375 86.0048 11.556C85.9007 11.7923 85.8892 12.0615 85.9726 12.3064C86.0561 12.5514 86.228 12.753 86.4519 12.8684C86.6758 12.9839 86.9341 13.0041 87.1721 12.9249C87.4101 12.8457 87.6091 12.6732 87.7269 12.444C88.5461 10.7223 89.9333 9.36422 91.6353 8.61776C93.3372 7.8713 95.2406 7.78618 96.9979 8.37794C98.7552 8.9697 100.249 10.1989 101.208 11.8412C102.166 13.4834 102.524 15.4293 102.218 17.3237C101.911 19.2181 100.96 20.9346 99.5373 22.1601C98.1148 23.3855 96.316 24.0382 94.4693 23.9989C92.6225 23.9596 90.8509 23.2311 89.4777 21.9462C88.1045 20.6614 87.2214 18.9058 86.9894 17H97.0856L95.8356 18.29C95.6595 18.4778 95.5614 18.73 95.5625 18.9923C95.5635 19.2546 95.6636 19.506 95.8412 19.6922C96.0188 19.8785 96.2596 19.9847 96.5118 19.9881C96.764 19.9914 97.0074 19.8915 97.1894 19.71L100.095 16.71C100.185 16.6171 100.257 16.5065 100.306 16.3846C100.354 16.2627 100.38 16.132 100.38 16C100.38 15.868 100.354 15.7373 100.306 15.6155C100.257 15.4936 100.185 15.383 100.095 15.29L97.1894 12.29C97.0074 12.1085 96.764 12.0087 96.5118 12.012C96.2596 12.0153 96.0188 12.1215 95.8412 12.3078C95.6636 12.4941 95.5635 12.7454 95.5625 13.0077C95.5614 13.27 95.6595 13.5222 95.8356 13.71L97.0856 15H85.9615C85.7065 15 85.462 15.1054 85.2816 15.2929C85.1013 15.4805 85 15.7348 85 16C85 17.9778 85.5639 19.9112 86.6205 21.5557C87.677 23.2002 89.1788 24.4819 90.9357 25.2388C92.6927 25.9957 94.626 26.1937 96.4912 25.8078C98.3565 25.422 100.07 24.4696 101.414 23.0711C102.759 21.6726 103.675 19.8907 104.046 17.9509C104.417 16.0111 104.227 14.0005 103.499 12.1732C102.771 10.3459 101.539 8.78417 99.9574 7.68535C98.3762 6.58654 96.5171 6.00006 94.6154 6.00006Z" fill="#F7E5FF"/>
<path d="M94.6146 6.22733H94.6154C96.4701 6.22733 98.284 6.79928 99.8277 7.87199C101.372 8.94478 102.576 10.4705 103.288 12.2573C103.999 14.0441 104.186 16.0108 103.823 17.9082C103.46 19.8056 102.564 21.5473 101.251 22.9135C99.9371 24.2797 98.2646 25.2089 96.4452 25.5853C94.6259 25.9616 92.74 25.7686 91.0257 25.0301C89.3112 24.2915 87.8443 23.0402 86.8117 21.4329C85.779 19.8255 85.2273 17.9348 85.2273 16C85.2273 15.7923 85.3067 15.5947 85.4455 15.4504C85.5839 15.3065 85.7697 15.2273 85.9615 15.2273H97.0856H97.6223L97.2488 14.8419L96.0002 13.5533C95.8654 13.4089 95.7889 13.2135 95.7897 13.0086C95.7906 12.8032 95.8691 12.608 96.0057 12.4646C96.1421 12.3216 96.3251 12.2417 96.5148 12.2392C96.7039 12.2367 96.8881 12.3113 97.0276 12.4497L99.9319 15.4481L99.932 15.4482C100.001 15.5197 100.057 15.6052 100.095 15.7C100.133 15.7948 100.152 15.8968 100.152 16C100.152 16.1033 100.133 16.2053 100.095 16.3001C100.057 16.3949 100.001 16.4804 99.932 16.5518L99.9319 16.5519L97.0276 19.5504C96.8881 19.6888 96.7039 19.7633 96.5148 19.7608C96.3251 19.7583 96.1421 19.6785 96.0057 19.5354C95.8691 19.3921 95.7906 19.1969 95.7897 18.9914C95.7889 18.7866 95.8654 18.5912 96.0002 18.4467L97.2488 17.1582L97.6223 16.7727H97.0856H86.9894H86.7328L86.7638 17.0275C87.0021 18.9851 87.9094 20.79 89.3224 22.1122C90.7357 23.4346 92.5606 24.1857 94.4644 24.2261C96.3683 24.2666 98.2214 23.5936 99.6856 22.3322C101.15 21.071 102.127 19.3059 102.442 17.36C102.757 15.4142 102.389 13.4149 101.404 11.7266C100.419 10.0382 98.8813 8.77233 97.0704 8.16255C95.2594 7.55269 93.2976 7.6405 91.544 8.40963C89.7917 9.17816 88.3655 10.5749 87.5233 12.343C87.4316 12.5195 87.2793 12.6497 87.1003 12.7093C86.9207 12.7691 86.7258 12.754 86.556 12.6664C86.3859 12.5787 86.2528 12.4242 86.1878 12.2332C86.123 12.0429 86.1317 11.8337 86.2117 11.6503C86.9843 10.0167 88.182 8.64304 89.6671 7.68473C91.1531 6.72591 92.8674 6.22123 94.6146 6.22733Z" stroke="#C381F6" stroke-width="0.454545"/>
</g>
<g filter="url(#filter1_d_2738_223124)">
<path d="M94.6154 6.00006C92.8237 5.9938 91.0664 6.51139 89.5439 7.49376C88.0215 8.47614 86.7951 9.88375 86.0048 11.556C85.9007 11.7923 85.8892 12.0615 85.9726 12.3064C86.0561 12.5514 86.228 12.753 86.4519 12.8684C86.6758 12.9839 86.9341 13.0041 87.1721 12.9249C87.4101 12.8457 87.6091 12.6732 87.7269 12.444C88.5461 10.7223 89.9333 9.36422 91.6353 8.61776C93.3372 7.8713 95.2406 7.78618 96.9979 8.37794C98.7552 8.9697 100.249 10.1989 101.208 11.8412C102.166 13.4834 102.524 15.4293 102.218 17.3237C101.911 19.2181 100.96 20.9346 99.5373 22.1601C98.1148 23.3855 96.316 24.0382 94.4693 23.9989C92.6225 23.9596 90.8509 23.2311 89.4777 21.9462C88.1045 20.6614 87.2214 18.9058 86.9894 17H97.0856L95.8356 18.29C95.6595 18.4778 95.5614 18.73 95.5625 18.9923C95.5635 19.2546 95.6636 19.506 95.8412 19.6922C96.0188 19.8785 96.2596 19.9847 96.5118 19.9881C96.764 19.9914 97.0074 19.8915 97.1894 19.71L100.095 16.71C100.185 16.6171 100.257 16.5065 100.306 16.3846C100.354 16.2627 100.38 16.132 100.38 16C100.38 15.868 100.354 15.7373 100.306 15.6155C100.257 15.4936 100.185 15.383 100.095 15.29L97.1894 12.29C97.0074 12.1085 96.764 12.0087 96.5118 12.012C96.2596 12.0153 96.0188 12.1215 95.8412 12.3078C95.6636 12.4941 95.5635 12.7454 95.5625 13.0077C95.5614 13.27 95.6595 13.5222 95.8356 13.71L97.0856 15H85.9615C85.7065 15 85.462 15.1054 85.2816 15.2929C85.1013 15.4805 85 15.7348 85 16C85 17.9778 85.5639 19.9112 86.6205 21.5557C87.677 23.2002 89.1788 24.4819 90.9357 25.2388C92.6927 25.9957 94.626 26.1937 96.4912 25.8078C98.3565 25.422 100.07 24.4696 101.414 23.0711C102.759 21.6726 103.675 19.8907 104.046 17.9509C104.417 16.0111 104.227 14.0005 103.499 12.1732C102.771 10.3459 101.539 8.78417 99.9574 7.68535C98.3762 6.58654 96.5171 6.00006 94.6154 6.00006Z" fill="#F7E5FF"/>
<path d="M94.6147 6.20006H94.6154C96.4758 6.20006 98.2951 6.77375 99.8433 7.84959C101.392 8.9255 102.599 10.4556 103.313 12.2472C104.027 14.0389 104.213 16.0108 103.85 17.9134C103.486 19.8158 102.588 21.5624 101.27 22.9324C99.953 24.3024 98.2756 25.2345 96.4507 25.612C94.6259 25.9895 92.7343 25.7958 91.0149 25.0551C89.2953 24.3144 87.8243 23.0594 86.7887 21.4476C85.7532 19.8358 85.2 17.94 85.2 16C85.2 15.7854 85.2821 15.581 85.4258 15.4315C85.5693 15.2823 85.7622 15.2 85.9615 15.2H97.0856H97.5579L97.2292 14.8609L95.9804 13.5721C95.8407 13.4225 95.7616 13.2203 95.7625 13.0085C95.7633 12.7962 95.8444 12.5943 95.986 12.4458C96.1273 12.2976 96.3173 12.2146 96.5145 12.212C96.7111 12.2094 96.9024 12.2869 97.047 12.4305L99.9515 15.4292L99.9516 15.4292C100.023 15.5033 100.081 15.5918 100.12 15.6898C100.159 15.7879 100.18 15.8933 100.18 16C100.18 16.1067 100.159 16.2122 100.12 16.3102C100.081 16.4083 100.023 16.4968 99.9516 16.5708L99.9515 16.5709L97.047 19.5696C96.9024 19.7131 96.7111 19.7907 96.5145 19.7881C96.3173 19.7855 96.1273 19.7025 95.986 19.5542C95.8444 19.4058 95.7633 19.2038 95.7625 18.9915C95.7616 18.7798 95.8407 18.5776 95.9804 18.428L97.2292 17.1392L97.5579 16.8H97.0856H86.9894H86.7636L86.7909 17.0242C87.0284 18.9756 87.9328 20.7746 89.3411 22.0923C90.7495 23.4101 92.568 24.1585 94.465 24.1989C96.362 24.2392 98.2086 23.5687 99.6678 22.3116C101.127 21.0547 102.101 19.2954 102.415 17.3557C102.729 15.416 102.362 13.4231 101.38 11.7404C100.398 10.0575 98.8662 8.79602 97.0617 8.1884C95.2571 7.58071 93.3024 7.6682 91.5549 8.4346C89.8087 9.20049 88.3872 10.5926 87.5477 12.3552C87.4529 12.538 87.2949 12.6732 87.1089 12.7352C86.9223 12.7973 86.7198 12.7816 86.5435 12.6907C86.367 12.5996 86.2292 12.4395 86.162 12.242C86.0949 12.0451 86.1039 11.8287 86.1868 11.639C86.9616 10.0008 88.1627 8.62302 89.6524 7.66181C91.1427 6.70017 92.8622 6.19394 94.6147 6.20006Z" stroke="#C381F6" stroke-width="0.4"/>
</g>
</g>
</g>
</g>
<path d="M24.3612 18.9014V20H19.2671V18.9014H24.3612ZM19.533 9.81187V20H18.1826V9.81187H19.533ZM25.3688 16.2984V16.1375C25.3688 15.5917 25.4481 15.0855 25.6067 14.619C25.7653 14.1479 25.9939 13.7397 26.2925 13.3945C26.591 13.0446 26.9526 12.7741 27.3771 12.5828C27.8016 12.3869 28.2774 12.2889 28.8045 12.2889C29.3363 12.2889 29.8145 12.3869 30.239 12.5828C30.6681 12.7741 31.032 13.0446 31.3306 13.3945C31.6338 13.7397 31.8647 14.1479 32.0233 14.619C32.1819 15.0855 32.2612 15.5917 32.2612 16.1375V16.2984C32.2612 16.8442 32.1819 17.3503 32.0233 17.8168C31.8647 18.2833 31.6338 18.6915 31.3306 19.0414C31.032 19.3866 30.6705 19.6571 30.246 19.8531C29.8261 20.0443 29.3503 20.1399 28.8185 20.1399C28.2867 20.1399 27.8086 20.0443 27.3841 19.8531C26.9595 19.6571 26.5957 19.3866 26.2925 19.0414C25.9939 18.6915 25.7653 18.2833 25.6067 17.8168C25.4481 17.3503 25.3688 16.8442 25.3688 16.2984ZM26.6633 16.1375V16.2984C26.6633 16.6763 26.7076 17.0331 26.7963 17.369C26.8849 17.7002 27.0179 17.9941 27.1951 18.2507C27.3771 18.5072 27.6033 18.7102 27.8739 18.8594C28.1444 19.004 28.4593 19.0764 28.8185 19.0764C29.173 19.0764 29.4833 19.004 29.7492 18.8594C30.0197 18.7102 30.2436 18.5072 30.4209 18.2507C30.5982 17.9941 30.7311 17.7002 30.8197 17.369C30.913 17.0331 30.9597 16.6763 30.9597 16.2984V16.1375C30.9597 15.7643 30.913 15.4121 30.8197 15.0809C30.7311 14.745 30.5958 14.4488 30.4139 14.1922C30.2366 13.931 30.0127 13.7257 29.7422 13.5764C29.4763 13.4272 29.1637 13.3525 28.8045 13.3525C28.45 13.3525 28.1374 13.4272 27.8669 13.5764C27.601 13.7257 27.3771 13.931 27.1951 14.1922C27.0179 14.4488 26.8849 14.745 26.7963 15.0809C26.7076 15.4121 26.6633 15.7643 26.6633 16.1375ZM38.7897 12.4289H39.9653V19.8391C39.9653 20.5061 39.83 21.0753 39.5594 21.5464C39.2889 22.0176 38.911 22.3744 38.4259 22.617C37.9454 22.8642 37.3903 22.9879 36.7605 22.9879C36.4993 22.9879 36.1914 22.9459 35.8368 22.8619C35.487 22.7826 35.1418 22.645 34.8012 22.4491C34.4654 22.2578 34.1831 21.9989 33.9546 21.6724L34.6333 20.9027C34.9505 21.2852 35.2817 21.5511 35.6269 21.7004C35.9768 21.8496 36.322 21.9243 36.6625 21.9243C37.073 21.9243 37.4276 21.8473 37.7261 21.6934C38.0247 21.5394 38.2556 21.3108 38.4189 21.0076C38.5868 20.7091 38.6708 20.3405 38.6708 19.902V14.0942L38.7897 12.4289ZM33.5767 16.2984V16.1515C33.5767 15.573 33.6443 15.0482 33.7796 14.5771C33.9196 14.1012 34.1178 13.6931 34.3744 13.3525C34.6356 13.012 34.9505 12.7508 35.319 12.5688C35.6876 12.3822 36.1027 12.2889 36.5646 12.2889C37.0404 12.2889 37.4556 12.3729 37.8101 12.5408C38.1693 12.7041 38.4725 12.9443 38.7197 13.2616C38.9717 13.5741 39.1699 13.952 39.3145 14.3951C39.4591 14.8383 39.5594 15.3398 39.6154 15.8996V16.5433C39.5641 17.0984 39.4638 17.5976 39.3145 18.0407C39.1699 18.4839 38.9717 18.8618 38.7197 19.1743C38.4725 19.4869 38.1693 19.7271 37.8101 19.895C37.4509 20.0583 37.0311 20.1399 36.5506 20.1399C36.0981 20.1399 35.6876 20.0443 35.319 19.8531C34.9552 19.6618 34.6426 19.3936 34.3814 19.0484C34.1202 18.7032 33.9196 18.2973 33.7796 17.8308C33.6443 17.3597 33.5767 16.8489 33.5767 16.2984ZM34.8712 16.1515V16.2984C34.8712 16.6763 34.9085 17.0308 34.9832 17.362C35.0625 17.6932 35.1814 17.9848 35.34 18.2367C35.5033 18.4886 35.7109 18.6868 35.9628 18.8314C36.2147 18.9714 36.5156 19.0414 36.8655 19.0414C37.2946 19.0414 37.6492 18.9504 37.929 18.7685C38.2089 18.5865 38.4305 18.3463 38.5938 18.0477C38.7617 17.7492 38.8923 17.425 38.9856 17.0751V15.3888C38.9343 15.1322 38.855 14.8849 38.7477 14.647C38.6451 14.4045 38.5098 14.1899 38.3419 14.0033C38.1786 13.812 37.9757 13.6604 37.7331 13.5485C37.4905 13.4365 37.206 13.3805 36.8794 13.3805C36.5249 13.3805 36.2194 13.4552 35.9628 13.6044C35.7109 13.749 35.5033 13.9496 35.34 14.2062C35.1814 14.4581 35.0625 14.752 34.9832 15.0879C34.9085 15.4191 34.8712 15.7736 34.8712 16.1515ZM53.5261 14.5841V15.2278C53.5261 15.9929 53.4305 16.6786 53.2392 17.285C53.048 17.8915 52.7727 18.4069 52.4135 18.8314C52.0543 19.2559 51.6228 19.5802 51.119 19.8041C50.6199 20.028 50.0601 20.1399 49.4397 20.1399C48.8379 20.1399 48.2851 20.028 47.7813 19.8041C47.2822 19.5802 46.8483 19.2559 46.4798 18.8314C46.1159 18.4069 45.8337 17.8915 45.6331 17.285C45.4325 16.6786 45.3322 15.9929 45.3322 15.2278V14.5841C45.3322 13.819 45.4302 13.1356 45.6261 12.5338C45.8267 11.9274 46.1089 11.4119 46.4728 10.9874C46.8367 10.5583 47.2682 10.2317 47.7673 10.0078C48.2711 9.78388 48.8239 9.67192 49.4257 9.67192C50.0461 9.67192 50.6059 9.78388 51.105 10.0078C51.6089 10.2317 52.0404 10.5583 52.3996 10.9874C52.7634 11.4119 53.041 11.9274 53.2322 12.5338C53.4282 13.1356 53.5261 13.819 53.5261 14.5841ZM52.1896 15.2278V14.5701C52.1896 13.9636 52.1267 13.4272 52.0007 12.9607C51.8794 12.4942 51.6998 12.1023 51.4619 11.7851C51.224 11.4679 50.9324 11.2277 50.5872 11.0644C50.2467 10.9011 49.8595 10.8195 49.4257 10.8195C49.0058 10.8195 48.6257 10.9011 48.2851 11.0644C47.9492 11.2277 47.66 11.4679 47.4174 11.7851C47.1795 12.1023 46.9953 12.4942 46.8647 12.9607C46.734 13.4272 46.6687 13.9636 46.6687 14.5701V15.2278C46.6687 15.8389 46.734 16.38 46.8647 16.8512C46.9953 17.3177 47.1819 17.7119 47.4244 18.0337C47.6717 18.351 47.9632 18.5912 48.2991 18.7545C48.6396 18.9177 49.0198 18.9994 49.4397 18.9994C49.8782 18.9994 50.2677 18.9177 50.6082 18.7545C50.9488 18.5912 51.2357 18.351 51.4689 18.0337C51.7068 17.7119 51.8864 17.3177 52.0077 16.8512C52.129 16.38 52.1896 15.8389 52.1896 15.2278ZM59.9847 18.2507V12.4289H61.2862V20H60.0476L59.9847 18.2507ZM60.2296 16.6553L60.7684 16.6413C60.7684 17.1451 60.7147 17.6116 60.6074 18.0407C60.5048 18.4652 60.3369 18.8338 60.1036 19.1463C59.8704 19.4589 59.5648 19.7038 59.187 19.881C58.8091 20.0536 58.3496 20.1399 57.8085 20.1399C57.44 20.1399 57.1018 20.0863 56.7939 19.979C56.4907 19.8717 56.2294 19.7061 56.0102 19.4822C55.7909 19.2583 55.6207 18.9667 55.4994 18.6075C55.3827 18.2483 55.3244 17.8168 55.3244 17.313V12.4289H56.6189V17.327C56.6189 17.6676 56.6563 17.9498 56.7309 18.1737C56.8102 18.3929 56.9152 18.5679 57.0458 18.6985C57.1811 18.8244 57.3303 18.9131 57.4936 18.9644C57.6616 19.0157 57.8342 19.0414 58.0114 19.0414C58.5619 19.0414 58.998 18.9364 59.3199 18.7265C59.6418 18.5119 59.8727 18.225 60.0127 17.8658C60.1573 17.5019 60.2296 17.0984 60.2296 16.6553ZM66.4292 12.4289V13.4225H62.3358V12.4289H66.4292ZM63.7212 10.5886H65.0158V18.1247C65.0158 18.3813 65.0554 18.5749 65.1347 18.7055C65.214 18.8361 65.3166 18.9224 65.4426 18.9644C65.5685 19.0064 65.7038 19.0274 65.8484 19.0274C65.9557 19.0274 66.0677 19.018 66.1843 18.9994C66.3056 18.9761 66.3966 18.9574 66.4572 18.9434L66.4642 20C66.3616 20.0327 66.2263 20.063 66.0584 20.091C65.8951 20.1236 65.6968 20.1399 65.4636 20.1399C65.1464 20.1399 64.8548 20.077 64.5889 19.951C64.323 19.8251 64.1108 19.6151 63.9522 19.3213C63.7982 19.0227 63.7212 18.6215 63.7212 18.1177V10.5886Z" fill="#ACACAC"/>
<rect x="0.5" y="2.5" width="114" height="27" rx="13.5" stroke="#9659FB"/>
<defs>
<filter id="filter0_d_2738_223124" x="76" y="-3" width="37.2305" height="38" filterUnits="userSpaceOnUse" color-interpolation-filters="sRGB">
<feFlood flood-opacity="0" result="BackgroundImageFix"/>
<feColorMatrix in="SourceAlpha" type="matrix" values="0 0 0 0 0 0 0 0 0 0 0 0 0 0 0 0 0 0 127 0" result="hardAlpha"/>
<feOffset/>
<feGaussianBlur stdDeviation="4.5"/>
<feComposite in2="hardAlpha" operator="out"/>
<feColorMatrix type="matrix" values="0 0 0 0 0.512333 0 0 0 0 0.129167 0 0 0 0 1 0 0 0 1 0"/>
<feBlend mode="normal" in2="BackgroundImageFix" result="effect1_dropShadow_2738_223124"/>
<feBlend mode="normal" in="SourceGraphic" in2="effect1_dropShadow_2738_223124" result="shape"/>
</filter>
<filter id="filter1_d_2738_223124" x="79" y="0" width="31.2305" height="32" filterUnits="userSpaceOnUse" color-interpolation-filters="sRGB">
<feFlood flood-opacity="0" result="BackgroundImageFix"/>
<feColorMatrix in="SourceAlpha" type="matrix" values="0 0 0 0 0 0 0 0 0 0 0 0 0 0 0 0 0 0 127 0" result="hardAlpha"/>
<feOffset/>
<feGaussianBlur stdDeviation="3"/>
<feComposite in2="hardAlpha" operator="out"/>
<feColorMatrix type="matrix" values="0 0 0 0 0.512333 0 0 0 0 0.129167 0 0 0 0 1 0 0 0 1 0"/>
<feBlend mode="normal" in2="BackgroundImageFix" result="effect1_dropShadow_2738_223124"/>
<feBlend mode="normal" in="SourceGraphic" in2="effect1_dropShadow_2738_223124" result="shape"/>
</filter>
<clipPath id="clip0_2738_223124">
<rect width="32" height="32" fill="white" transform="translate(79)"/>
</clipPath>
<clipPath id="clip1_2738_223124">
<rect x="79" width="32" height="32" rx="16" fill="white"/>
</clipPath>
<clipPath id="clip2_2738_223124">
<rect x="79" width="32" height="32" rx="16" fill="white"/>
</clipPath>
</defs>
</svg>
