<svg width="43" height="43" viewBox="0 0 43 43" fill="none" xmlns="http://www.w3.org/2000/svg">
<g clip-path="url(#clip0_2017_82888)">
<path d="M38.7008 21.5C38.7008 30.9994 31.0001 38.7 21.5008 38.7C12.0014 38.7 4.30078 30.9994 4.30078 21.5C4.30078 12.0007 12.0014 4.30005 21.5008 4.30005C31.0001 4.30005 38.7008 12.0007 38.7008 21.5Z" fill="#CACACA"/>
<path d="M21.5 43C9.62601 43 0 33.374 0 21.5C0 9.62601 9.62601 0 21.5 0C33.374 0 43 9.62601 43 21.5C42.9867 33.3684 33.3684 42.9867 21.5 43ZM21.5 1.43333C10.4176 1.43333 1.43333 10.4176 1.43333 21.5C1.43333 32.5824 10.4176 41.5667 21.5 41.5667C32.5824 41.5667 41.5667 32.5824 41.5667 21.5C41.5541 10.4228 32.5772 1.44593 21.5 1.43333Z" fill="#939393"/>
<path d="M21.5003 20.0667C16.7727 20.0677 12.6872 23.369 11.6934 27.9909C13.9819 31.1183 17.6248 32.967 21.5003 32.967C25.3758 32.967 29.0186 31.1183 31.3072 27.9909C30.3134 23.369 26.2279 20.0677 21.5003 20.0667V20.0667Z" fill="#707070"/>
<path d="M26.5158 15.0501C26.5158 17.8209 24.2699 20.0668 21.4991 20.0668C18.7283 20.0668 16.4824 17.8209 16.4824 15.0501C16.4824 12.2793 18.7283 10.0334 21.4991 10.0334C24.2699 10.0334 26.5158 12.2793 26.5158 15.0501Z" fill="#939393"/>
</g>
<defs>
<clipPath id="clip0_2017_82888">
<rect width="43" height="43" fill="white"/>
</clipPath>
</defs>
</svg>
