<svg width="36" height="37" viewBox="0 0 36 37" fill="none" xmlns="http://www.w3.org/2000/svg">
<path d="M28.0978 0.888674C26.0516 0.887081 24.0883 1.6997 22.6389 3.14815C21.1896 4.5966 20.3726 6.56252 20.3673 8.61437V17.1803C19.5712 17.2342 18.7571 17.2681 17.9132 17.2681C17.0693 17.2681 16.2592 17.302 15.4591 17.3499V8.61437C15.4265 6.58031 14.5979 4.6406 13.1518 3.21371C11.7058 1.78681 9.75833 0.987106 7.72954 0.987106C5.70076 0.987106 3.75329 1.78681 2.30726 3.21371C0.861228 4.6406 0.0325523 6.58031 0 8.61437V29.0872C0.0325523 31.1212 0.861228 33.0609 2.30726 34.4878C3.75329 35.9147 5.70076 36.7144 7.72954 36.7144C9.75833 36.7144 11.7058 35.9147 13.1518 34.4878C14.5979 33.0609 15.4265 31.1212 15.4591 29.0872V20.5212C16.2552 20.4674 17.0693 20.4334 17.9132 20.4334C18.7571 20.4334 19.5672 20.3995 20.3673 20.3516V29.0872C20.3999 31.1212 21.2285 33.0609 22.6746 34.4878C24.1206 35.9147 26.0681 36.7144 28.0968 36.7144C30.1256 36.7144 32.0731 35.9147 33.5191 34.4878C34.9652 33.0609 35.7938 31.1212 35.8264 29.0872V8.61437C35.8211 6.56286 35.0044 4.59725 33.5555 3.14885C32.1066 1.70046 30.1438 0.88761 28.0978 0.888674ZM7.72855 4.05399C8.93619 4.05346 10.0947 4.53331 10.95 5.38826C11.8052 6.24321 12.2873 7.40344 12.2904 8.61437V17.6852C10.029 18.0138 7.82055 18.6399 5.72227 19.5473C4.81314 19.9474 3.95732 20.4596 3.17462 21.0721V8.61437C3.17777 7.40482 3.65877 6.2458 4.51228 5.39108C5.3658 4.53636 6.52229 4.05557 7.72855 4.05399ZM12.2904 29.0872C12.2904 30.3004 11.8098 31.4639 10.9543 32.3217C10.0988 33.1796 8.93844 33.6615 7.72855 33.6615C6.51866 33.6615 5.35832 33.1796 4.5028 32.3217C3.64728 31.4639 3.16666 30.3004 3.16666 29.0872V27.0335C3.16666 25.2193 4.59971 23.5009 7.00207 22.4312C8.69481 21.6989 10.4709 21.1781 12.2904 20.8805V29.0872ZM28.0978 33.6475C26.8902 33.6481 25.7317 33.1682 24.8764 32.3133C24.0212 31.4583 23.5391 30.2981 23.5359 29.0872V20.0163C25.7974 19.6877 28.0058 19.0616 30.1041 18.1542C31.0132 17.7541 31.8691 17.2419 32.6518 16.6295V29.0872C32.6486 30.2967 32.1676 31.4557 31.3141 32.3104C30.4606 33.1652 29.3041 33.646 28.0978 33.6475ZM28.8243 15.2583C27.1316 15.9906 25.3555 16.5115 23.5359 16.8091V8.61437C23.5359 7.40118 24.0166 6.23767 24.8721 5.37982C25.7276 4.52196 26.8879 4.04002 28.0978 4.04002C29.3077 4.04002 30.4681 4.52196 31.3236 5.37982C32.1791 6.23767 32.6597 7.40118 32.6597 8.61437V10.668C32.6597 12.4742 31.2267 14.1926 28.8243 15.2583Z" fill="url(#paint0_linear_1481_98859)"/>
<defs>
<linearGradient id="paint0_linear_1481_98859" x1="2.269" y1="34.0453" x2="33.438" y2="2.87634" gradientUnits="userSpaceOnUse">
<stop stop-color="#00AEE9"/>
<stop offset="1" stop-color="#69FABD"/>
</linearGradient>
</defs>
</svg>
