<svg width="368" height="80" viewBox="0 0 368 80" fill="none" xmlns="http://www.w3.org/2000/svg">
<rect width="368" height="80" rx="8" fill="#FF0000" fill-opacity="0.15"/>
<path fill-rule="evenodd" clip-rule="evenodd" d="M40.0003 50.6667C45.8914 50.6667 50.667 45.8911 50.667 40.0001C50.667 34.109 45.8914 29.3334 40.0003 29.3334C34.1093 29.3334 29.3337 34.109 29.3337 40.0001C29.3337 45.8911 34.1093 50.6667 40.0003 50.6667ZM40.0003 53.3334C47.3641 53.3334 53.3337 47.3639 53.3337 40.0001C53.3337 32.6363 47.3641 26.6667 40.0003 26.6667C32.6365 26.6667 26.667 32.6363 26.667 40.0001C26.667 47.3639 32.6365 53.3334 40.0003 53.3334Z" fill="#FF0A12"/>
<path fill-rule="evenodd" clip-rule="evenodd" d="M40.0003 33.3333C39.2639 33.3333 38.667 33.9302 38.667 34.6666C38.667 35.403 39.2639 35.9999 40.0003 35.9999C40.7367 35.9999 41.3337 35.403 41.3337 34.6666C41.3337 33.9302 40.7367 33.3333 40.0003 33.3333ZM40.0003 38.6666C39.2639 38.6666 38.667 39.2635 38.667 39.9999V45.3333C38.667 46.0696 39.2639 46.6666 40.0003 46.6666C40.7367 46.6666 41.3337 46.0696 41.3337 45.3333V39.9999C41.3337 39.2635 40.7367 38.6666 40.0003 38.6666Z" fill="#FF0A12"/>
<path d="M70.7266 41.9766C70.7266 41.7995 70.7005 41.6406 70.6484 41.5C70.5964 41.3542 70.5 41.2188 70.3594 41.0938C70.2188 40.9688 70.0156 40.8438 69.75 40.7188C69.4896 40.5885 69.1458 40.4531 68.7188 40.3125C68.2188 40.1458 67.737 39.9583 67.2734 39.75C66.8099 39.5365 66.3958 39.2891 66.0312 39.0078C65.6667 38.7214 65.3776 38.388 65.1641 38.0078C64.9505 37.6224 64.8438 37.1745 64.8438 36.6641C64.8438 36.1745 64.9531 35.7344 65.1719 35.3438C65.3906 34.9479 65.6953 34.612 66.0859 34.3359C66.4818 34.0547 66.9453 33.8411 67.4766 33.6953C68.0078 33.5443 68.5885 33.4688 69.2188 33.4688C70.0521 33.4688 70.7865 33.6146 71.4219 33.9062C72.0625 34.1927 72.5625 34.6016 72.9219 35.1328C73.2865 35.6589 73.4688 36.2812 73.4688 37H70.7422C70.7422 36.7135 70.6823 36.4609 70.5625 36.2422C70.4479 36.0234 70.2734 35.8516 70.0391 35.7266C69.8047 35.6016 69.5104 35.5391 69.1562 35.5391C68.8125 35.5391 68.5234 35.5911 68.2891 35.6953C68.0547 35.7995 67.8776 35.9401 67.7578 36.1172C67.638 36.2891 67.5781 36.4792 67.5781 36.6875C67.5781 36.8594 67.625 37.0156 67.7188 37.1562C67.8177 37.2917 67.9557 37.4193 68.1328 37.5391C68.3151 37.6589 68.5339 37.7734 68.7891 37.8828C69.0495 37.9922 69.3411 38.099 69.6641 38.2031C70.2682 38.3958 70.8047 38.612 71.2734 38.8516C71.7474 39.0859 72.1458 39.3542 72.4688 39.6562C72.7969 39.9531 73.0443 40.2917 73.2109 40.6719C73.3828 41.0521 73.4688 41.4818 73.4688 41.9609C73.4688 42.4714 73.3698 42.9245 73.1719 43.3203C72.974 43.7161 72.6901 44.0521 72.3203 44.3281C71.9505 44.599 71.5078 44.8047 70.9922 44.9453C70.4766 45.0859 69.901 45.1562 69.2656 45.1562C68.6823 45.1562 68.1068 45.0833 67.5391 44.9375C66.9766 44.7865 66.4661 44.5573 66.0078 44.25C65.5495 43.9375 65.1823 43.5391 64.9062 43.0547C64.6354 42.5651 64.5 41.9844 64.5 41.3125H67.25C67.25 41.6458 67.2943 41.9271 67.3828 42.1562C67.4714 42.3854 67.6016 42.5703 67.7734 42.7109C67.9453 42.8464 68.1562 42.9453 68.4062 43.0078C68.6562 43.0651 68.9427 43.0938 69.2656 43.0938C69.6146 43.0938 69.8958 43.0443 70.1094 42.9453C70.3229 42.8411 70.4792 42.7057 70.5781 42.5391C70.6771 42.3672 70.7266 42.1797 70.7266 41.9766ZM82.7109 42.8906V45H76.6484V42.8906H82.7109ZM77.625 33.625V45H74.8828V33.625H77.625ZM81.9297 38.1406V40.1797H76.6484V38.1406H81.9297ZM82.7344 33.625V35.7422H76.6484V33.625H82.7344ZM83.8359 33.625H88.3125C89.1875 33.625 89.9479 33.7552 90.5938 34.0156C91.2396 34.276 91.737 34.6615 92.0859 35.1719C92.4401 35.6823 92.6172 36.3125 92.6172 37.0625C92.6172 37.7135 92.5156 38.2578 92.3125 38.6953C92.1094 39.1328 91.8255 39.4948 91.4609 39.7812C91.1016 40.0625 90.6823 40.2943 90.2031 40.4766L89.3047 40.9844H85.5469L85.5312 38.8672H88.3125C88.6615 38.8672 88.9505 38.8047 89.1797 38.6797C89.4089 38.5547 89.5807 38.3776 89.6953 38.1484C89.8151 37.9141 89.875 37.6354 89.875 37.3125C89.875 36.9844 89.8151 36.7031 89.6953 36.4688C89.5755 36.2344 89.3984 36.0547 89.1641 35.9297C88.9349 35.8047 88.651 35.7422 88.3125 35.7422H86.5781V45H83.8359V33.625ZM90.0625 45L87.5469 39.9688L90.4531 39.9531L93 44.8828V45H90.0625ZM98.4219 42.3203L100.789 33.625H103.859L100.023 45H98.0391L98.4219 42.3203ZM96.2734 33.625L98.6406 42.3203L99.0391 45H97.0312L93.2188 33.625H96.2734ZM107.609 33.625V45H104.875V33.625H107.609ZM116.008 41.1484H118.742C118.706 41.9401 118.492 42.638 118.102 43.2422C117.711 43.8464 117.169 44.3177 116.477 44.6562C115.789 44.9896 114.977 45.1562 114.039 45.1562C113.279 45.1562 112.599 45.0286 112 44.7734C111.406 44.5182 110.901 44.151 110.484 43.6719C110.073 43.1927 109.758 42.612 109.539 41.9297C109.326 41.2474 109.219 40.4792 109.219 39.625V39.0078C109.219 38.1536 109.331 37.3854 109.555 36.7031C109.784 36.0156 110.107 35.4323 110.523 34.9531C110.945 34.4688 111.451 34.099 112.039 33.8438C112.628 33.5885 113.281 33.4609 114 33.4609C114.99 33.4609 115.826 33.638 116.508 33.9922C117.19 34.3464 117.719 34.8333 118.094 35.4531C118.469 36.0677 118.69 36.7682 118.758 37.5547H116.023C116.013 37.1276 115.94 36.7708 115.805 36.4844C115.669 36.1927 115.456 35.974 115.164 35.8281C114.872 35.6823 114.484 35.6094 114 35.6094C113.661 35.6094 113.367 35.6719 113.117 35.7969C112.867 35.9219 112.659 36.1198 112.492 36.3906C112.326 36.6615 112.201 37.013 112.117 37.4453C112.039 37.8724 112 38.388 112 38.9922V39.625C112 40.2292 112.036 40.7448 112.109 41.1719C112.182 41.599 112.299 41.9479 112.461 42.2188C112.622 42.4896 112.831 42.6901 113.086 42.8203C113.346 42.9453 113.664 43.0078 114.039 43.0078C114.456 43.0078 114.807 42.9427 115.094 42.8125C115.38 42.6771 115.602 42.474 115.758 42.2031C115.914 41.9271 115.997 41.5755 116.008 41.1484ZM127.867 42.8906V45H121.805V42.8906H127.867ZM122.781 33.625V45H120.039V33.625H122.781ZM127.086 38.1406V40.1797H121.805V38.1406H127.086ZM127.891 33.625V35.7422H121.805V33.625H127.891ZM137.797 36.0156L135.023 45H132.078L136.258 33.625H138.125L137.797 36.0156ZM140.094 45L137.312 36.0156L136.953 33.625H138.844L143.047 45H140.094ZM139.984 40.7578V42.875H134.148V40.7578H139.984ZM153.016 38.9219V43.5938C152.823 43.8073 152.526 44.0365 152.125 44.2812C151.729 44.5208 151.229 44.7266 150.625 44.8984C150.021 45.0703 149.31 45.1562 148.492 45.1562C147.737 45.1562 147.052 45.0365 146.438 44.7969C145.823 44.5521 145.294 44.1953 144.852 43.7266C144.414 43.2526 144.076 42.6745 143.836 41.9922C143.602 41.3047 143.484 40.5182 143.484 39.6328V39C143.484 38.1146 143.604 37.3281 143.844 36.6406C144.083 35.9531 144.419 35.375 144.852 34.9062C145.289 34.4323 145.802 34.0729 146.391 33.8281C146.984 33.5833 147.635 33.4609 148.344 33.4609C149.391 33.4609 150.242 33.6276 150.898 33.9609C151.555 34.2891 152.052 34.7448 152.391 35.3281C152.729 35.9062 152.935 36.5755 153.008 37.3359H150.375C150.323 36.9609 150.224 36.6432 150.078 36.3828C149.938 36.1172 149.734 35.9167 149.469 35.7812C149.203 35.6406 148.859 35.5703 148.438 35.5703C148.109 35.5703 147.81 35.6406 147.539 35.7812C147.273 35.9219 147.047 36.1354 146.859 36.4219C146.672 36.7031 146.526 37.0573 146.422 37.4844C146.323 37.9115 146.273 38.4115 146.273 38.9844V39.6328C146.273 40.2005 146.32 40.6979 146.414 41.125C146.513 41.5521 146.659 41.9089 146.852 42.1953C147.049 42.4766 147.299 42.6901 147.602 42.8359C147.909 42.9766 148.271 43.0469 148.688 43.0469C148.979 43.0469 149.229 43.0234 149.438 42.9766C149.646 42.9245 149.818 42.862 149.953 42.7891C150.094 42.7109 150.201 42.638 150.273 42.5703V40.8047H148.367V38.9219H153.016ZM154.617 33.625H159.094C159.969 33.625 160.729 33.7552 161.375 34.0156C162.021 34.276 162.518 34.6615 162.867 35.1719C163.221 35.6823 163.398 36.3125 163.398 37.0625C163.398 37.7135 163.297 38.2578 163.094 38.6953C162.891 39.1328 162.607 39.4948 162.242 39.7812C161.883 40.0625 161.464 40.2943 160.984 40.4766L160.086 40.9844H156.328L156.312 38.8672H159.094C159.443 38.8672 159.732 38.8047 159.961 38.6797C160.19 38.5547 160.362 38.3776 160.477 38.1484C160.596 37.9141 160.656 37.6354 160.656 37.3125C160.656 36.9844 160.596 36.7031 160.477 36.4688C160.357 36.2344 160.18 36.0547 159.945 35.9297C159.716 35.8047 159.432 35.7422 159.094 35.7422H157.359V45H154.617V33.625ZM160.844 45L158.328 39.9688L161.234 39.9531L163.781 44.8828V45H160.844ZM172.883 42.8906V45H166.82V42.8906H172.883ZM167.797 33.625V45H165.055V33.625H167.797ZM172.102 38.1406V40.1797H166.82V38.1406H172.102ZM172.906 33.625V35.7422H166.82V33.625H172.906ZM181.836 42.8906V45H175.773V42.8906H181.836ZM176.75 33.625V45H174.008V33.625H176.75ZM181.055 38.1406V40.1797H175.773V38.1406H181.055ZM181.859 33.625V35.7422H175.773V33.625H181.859ZM184.32 33.625H186.555L189.094 41.5391L191.633 33.625H193.867L190 45H188.188L184.32 33.625ZM182.961 33.625H185.273L185.703 42.3438V45H182.961V33.625ZM192.914 33.625H195.234V45H192.484V42.3438L192.914 33.625ZM204.82 42.8906V45H198.758V42.8906H204.82ZM199.734 33.625V45H196.992V33.625H199.734ZM204.039 38.1406V40.1797H198.758V38.1406H204.039ZM204.844 33.625V35.7422H198.758V33.625H204.844ZM215.445 33.625V45H212.711L208.688 37.9219V45H205.945V33.625H208.688L212.711 40.7031V33.625H215.445ZM222.453 33.625V45H219.711V33.625H222.453ZM225.875 33.625V35.7422H216.367V33.625H225.875Z" fill="#FF0A12"/>
</svg>
